<?xml version="1.0" standalone="no"?>
<!DOCTYPE svg PUBLIC "-//W3C//DTD SVG 20010904//EN"
 "http://www.w3.org/TR/2001/REC-SVG-20010904/DTD/svg10.dtd">
<svg version="1.0" xmlns="http://www.w3.org/2000/svg"
 width="918.000000pt" height="1280.000000pt" viewBox="0 0 918.000000 1280.000000"
 preserveAspectRatio="xMidYMid meet">
<metadata>
Created by potrace 1.15, written by Peter Selinger 2001-2017
</metadata>
<g transform="translate(0.000000,1280.000000) scale(0.100000,-0.100000)"
fill="#1C3F74" stroke="#1C3F74" stroke-width="18" stroke-linejoin="round" stroke-linecap="round" paint-order="stroke fill">
<path d="M4092 12757 l-42 -43 0 -1052 0 -1052 -1977 0 -1978 0 -48 -41 -47
-41 0 -494 0 -494 788 0 788 0 150 -137 c199 -184 226 -205 389 -313 77 -51
159 -110 182 -131 23 -21 54 -41 70 -45 15 -3 96 -39 178 -80 83 -40 200 -90
260 -110 61 -20 122 -45 137 -55 51 -36 173 -89 265 -113 72 -19 105 -34 157
-73 36 -26 85 -62 108 -78 45 -33 54 -47 89 -140 12 -33 53 -125 92 -205 l69
-145 24 -240 c17 -163 41 -325 75 -504 48 -249 51 -272 46 -380 -3 -78 -13
-151 -31 -224 -25 -98 -26 -115 -17 -176 10 -61 8 -78 -14 -162 -14 -52 -25
-110 -25 -130 l0 -36 113 -6 c130 -8 157 -14 157 -34 0 -11 -6 -14 -22 -9 -13
4 -84 9 -158 12 l-135 5 3 27 c2 15 10 44 17 65 7 20 10 37 8 37 -3 0 -27 -16
-54 -36 -89 -65 -108 -117 -70 -193 19 -37 19 -38 0 -80 -23 -52 -24 -69 -3
-121 l16 -40 -86 -114 c-47 -62 -100 -140 -117 -172 -27 -52 -30 -65 -24 -109
8 -66 8 -78 0 -160 -6 -61 -5 -73 12 -94 17 -21 18 -30 10 -73 -14 -70 -1 -94
57 -102 51 -8 86 -42 86 -83 0 -45 17 -63 61 -63 29 0 46 -6 58 -21 14 -17 21
-19 44 -10 32 13 32 2 7 193 -24 188 -35 379 -26 441 6 39 16 55 64 101 33 32
66 56 78 56 28 0 174 -108 174 -129 0 -5 -37 14 -82 44 -44 30 -88 55 -97 55
-9 -1 -40 -23 -70 -50 l-53 -49 6 -118 c16 -273 65 -562 169 -993 l52 -215 -5
-350 c-3 -192 -5 -449 -5 -570 l1 -220 42 -185 42 -185 0 -1258 0 -1257 498 0
498 0 42 43 42 43 0 2055 c0 1280 4 2085 10 2134 27 223 42 423 47 637 l6 237
-32 18 c-17 10 -31 22 -31 26 0 8 57 -21 111 -56 25 -17 27 -16 52 7 15 14 27
36 27 49 0 19 7 26 33 33 l32 10 6 152 c5 127 9 156 24 172 17 19 18 28 6 133
-7 61 -19 126 -27 142 -12 23 -15 63 -13 170 l3 140 -42 82 c-35 69 -40 86
-30 102 9 15 7 25 -11 55 -26 41 -24 41 -54 22 -12 -8 -43 -18 -69 -21 -40 -6
-48 -5 -48 9 0 12 10 16 41 16 l42 0 -5 103 c-3 56 -16 165 -29 242 l-22 140
61 195 c92 292 111 382 122 560 18 289 40 471 66 548 13 40 29 103 36 141 l12
68 260 84 c353 113 435 145 546 214 139 86 206 120 291 148 117 39 209 78 269
113 30 17 104 46 165 64 60 17 133 45 161 61 82 46 368 253 493 356 l113 93
672 0 671 1 43 38 42 39 0 496 0 496 -2025 0 -2025 0 0 1095 0 1095 -498 0
-498 0 -42 -43z m-542 -3252 c0 -37 -15 -45 -39 -22 -11 10 -12 4 -7 -34 6
-42 5 -46 -20 -58 -25 -11 -26 -14 -20 -62 5 -39 4 -51 -9 -55 -8 -3 -15 -9
-15 -13 0 -13 49 -31 81 -31 26 0 29 -2 19 -19 -5 -11 -24 -28 -40 -38 -36
-21 -23 -33 37 -33 36 0 43 -4 55 -30 16 -37 21 -37 49 -2 l22 27 -6 -59 -6
-59 33 32 33 32 7 -25 c4 -17 21 -33 49 -47 50 -25 107 -67 107 -78 0 -4 -21
2 -47 15 -71 33 -189 54 -311 54 l-108 0 -130 75 c-248 146 -330 176 -504 191
l-85 7 -80 72 c-44 39 -111 96 -150 125 -38 30 -74 57 -79 62 -6 4 254 8 577
8 l587 0 0 -35z m3464 26 c-9 -8 -156 -62 -275 -100 -88 -29 -170 -79 -246
-152 -53 -51 -66 -59 -100 -59 -21 0 -101 -5 -178 -10 -166 -11 -224 -28 -439
-126 l-146 -66 -95 17 c-71 13 -129 16 -232 13 -76 -3 -146 -8 -155 -13 -17
-7 -18 8 -18 242 0 137 3 253 7 256 3 4 429 7 947 7 519 0 936 -4 930 -9z"/>
</g>
</svg>
