<?xml version="1.0" standalone="no"?>
<!DOCTYPE svg PUBLIC "-//W3C//DTD SVG 20010904//EN"
 "http://www.w3.org/TR/2001/REC-SVG-20010904/DTD/svg10.dtd">
<svg version="1.0" xmlns="http://www.w3.org/2000/svg"
 width="1024.000000pt" height="1536.000000pt" viewBox="0 0 1024.000000 1536.000000"
 preserveAspectRatio="xMidYMid meet">

<g transform="translate(0.000000,1536.000000) scale(0.100000,-0.100000)"
fill="#000000" stroke="none">
<path d="M4286 14359 c-177 -26 -406 -118 -501 -201 -108 -95 -183 -228 -227
-401 -23 -93 -27 -291 -8 -413 24 -157 158 -593 258 -844 25 -64 82 -233 82
-245 0 -2 -73 -68 -162 -148 -90 -79 -205 -188 -256 -242 -190 -201 -244 -308
-557 -1115 -126 -323 -240 -659 -271 -802 -27 -118 -28 -135 -28 -408 0 -262
6 -447 34 -965 11 -198 15 -942 5 -1080 -2 -44 -9 -168 -15 -275 -6 -107 -14
-235 -20 -285 -30 -289 -31 -407 -6 -485 18 -53 108 -241 196 -405 l41 -78 -8
-476 c-10 -592 -8 -747 13 -816 8 -30 40 -103 69 -164 30 -61 55 -114 55 -117
0 -3 43 -95 95 -204 111 -232 120 -268 81 -334 -15 -25 -29 -46 -31 -46 -2 0
-38 41 -80 90 -248 293 -408 641 -471 1028 -10 56 -20 102 -24 102 -19 0 -55
-200 -65 -360 -11 -192 31 -461 110 -700 43 -129 152 -354 229 -473 l57 -89
-39 -106 c-22 -59 -63 -179 -90 -267 -28 -88 -65 -205 -82 -260 -30 -94 -73
-179 -127 -251 -13 -17 -23 -36 -23 -43 0 -28 105 -218 247 -446 l94 -149
-210 -211 c-115 -115 -214 -220 -220 -232 -19 -37 -14 -72 13 -84 37 -17 104
-3 196 42 78 37 82 38 87 19 11 -43 112 -38 199 9 l53 29 14 -21 c21 -32 73
-27 156 14 68 34 71 34 71 14 0 -26 18 -45 42 -45 22 0 22 0 3 -36 -16 -32
-19 -62 -7 -81 12 -18 61 -34 88 -27 21 5 24 3 24 -20 0 -30 39 -60 67 -53 10
3 28 8 41 12 19 5 22 3 22 -19 0 -60 89 -88 160 -51 29 15 30 15 30 -5 0 -24
18 -61 34 -72 19 -13 100 -8 130 7 35 18 36 18 36 0 0 -8 9 -24 20 -35 24 -24
91 -27 110 -5 12 14 15 14 30 0 24 -22 62 -18 104 10 20 14 39 25 41 25 3 0 5
-47 5 -104 l0 -104 88 -21 c229 -53 542 -74 753 -51 125 13 284 42 344 63 l38
13 -2 92 c-1 51 2 92 6 92 5 0 26 -9 48 -20 54 -27 91 -26 111 4 l16 25 31
-20 c61 -37 129 -18 150 43 6 16 9 16 49 -2 91 -41 178 -10 178 65 0 12 5 12
35 -1 19 -7 54 -14 78 -14 55 0 90 32 85 79 -1 17 -1 31 2 32 3 0 31 -7 63
-16 94 -27 157 1 157 71 0 30 3 35 18 29 9 -4 42 -9 72 -12 44 -4 60 -2 79 14
28 23 31 76 7 124 -16 31 -15 34 6 58 13 14 23 27 24 29 1 1 26 -9 56 -23 30
-14 75 -28 101 -31 41 -6 49 -4 69 19 l22 25 56 -28 c117 -59 230 -59 230 1 0
15 10 13 83 -21 98 -46 194 -68 234 -54 23 7 29 16 31 45 2 29 -4 45 -36 85
-78 99 -403 389 -634 567 -71 54 -128 100 -128 102 0 1 37 0 83 -2 113 -7 116
-3 83 119 -14 51 -50 185 -80 298 l-56 205 33 25 c67 52 205 180 276 256 263
282 452 591 566 927 58 172 83 287 96 449 11 134 -1 332 -21 352 -11 11 -9 15
-45 -111 -142 -498 -508 -977 -961 -1261 -94 -58 -264 -145 -271 -139 -2 3 7
54 22 113 27 113 68 228 136 379 79 175 160 385 167 432 7 49 2 148 -13 237
l-8 49 59 -48 c124 -101 303 -195 458 -239 106 -31 133 -32 141 -7 34 108 46
594 20 796 -35 265 -66 386 -166 640 -92 232 -175 520 -215 744 -20 110 -22
145 -14 195 5 34 14 126 20 206 6 80 15 201 20 270 27 359 63 609 155 1064 41
204 84 431 95 505 89 595 17 1288 -221 2116 -168 586 -358 967 -600 1207 -78
77 -226 194 -335 265 -344 224 -432 331 -517 628 -19 66 -47 192 -62 280 -73
427 -154 643 -318 849 -135 171 -357 300 -577 335 -76 13 -299 12 -384 0z
m318 -35 c25 -4 46 -11 46 -16 0 -5 -4 -7 -9 -4 -5 3 -11 -1 -15 -9 -9 -24
-77 -20 -83 4 -3 11 -12 22 -22 24 -26 7 32 8 83 1z m-264 -33 c-4 -16 -5 -33
-2 -37 4 -4 -6 -4 -23 0 -16 4 -38 17 -49 29 -18 21 -18 22 5 28 13 4 36 7 51
8 25 1 26 -1 18 -28z m353 12 c-7 -2 -19 -2 -25 0 -7 3 -2 5 12 5 14 0 19 -2
13 -5z m-510 -20 c-7 -2 -19 -2 -25 0 -7 3 -2 5 12 5 14 0 19 -2 13 -5z m95
-53 c335 -80 633 -398 816 -872 46 -118 74 -219 156 -558 94 -388 176 -597
345 -872 42 -68 85 -152 96 -188 24 -77 38 -253 20 -264 -6 -4 -11 -1 -11 8 0
32 -52 131 -138 264 -269 415 -339 580 -463 1092 -98 404 -186 631 -321 835
-148 223 -350 387 -555 451 -72 23 -96 26 -186 22 -129 -4 -171 -26 -246 -125
-96 -129 -141 -276 -141 -468 0 -205 43 -372 201 -778 270 -692 292 -767 334
-1122 21 -184 18 -465 -5 -465 -4 0 -10 27 -13 59 -4 33 -22 122 -42 198 -19
76 -51 214 -71 308 -66 314 -92 402 -302 1005 -133 381 -182 592 -182 785 0
330 160 603 403 686 71 25 199 24 305 -1z m267 -50 c-1 -8 5 -21 14 -28 9 -7
-11 2 -44 19 -69 38 -78 44 -49 37 12 -3 31 3 45 13 24 18 24 18 30 -4 3 -12
5 -29 4 -37z m286 -11 c13 -18 17 -19 42 -8 36 16 43 7 21 -26 -17 -26 -17
-28 1 -41 10 -8 23 -14 28 -14 4 0 5 -4 2 -10 -3 -5 -18 -10 -32 -10 -22 0
-25 -4 -21 -25 6 -30 1 -31 -24 -8 -19 17 -20 16 -39 -7 l-19 -25 0 28 c0 23
-4 27 -27 27 -25 0 -25 1 -10 18 23 25 21 37 -5 55 -23 16 -23 16 10 16 24 1
32 5 32 19 0 36 21 42 41 11z m-791 -439 c45 -32 82 -40 226 -49 109 -6 139
-12 188 -34 151 -69 391 -383 451 -589 29 -100 127 -333 209 -496 31 -62 68
-143 81 -180 28 -77 31 -73 -68 -123 -88 -45 -222 -87 -324 -100 -107 -14
-251 -1 -311 28 -37 18 -37 19 -34 73 1 30 -1 78 -6 106 l-9 52 57 -5 c80 -8
144 22 218 101 48 51 109 136 99 136 -2 0 -28 -31 -60 -69 -89 -109 -184 -160
-268 -146 -82 14 -315 176 -398 278 -64 78 -142 257 -112 257 6 0 11 -7 11
-15 0 -18 41 -20 73 -4 30 15 67 50 67 62 0 6 -11 0 -24 -12 l-25 -23 7 27 c5
16 18 32 30 36 20 7 23 3 36 -44 8 -29 22 -87 31 -130 13 -60 22 -81 41 -93
34 -23 91 -11 106 21 7 15 21 25 37 27 19 2 27 10 29 27 2 13 -1 28 -7 34 -7
7 -10 1 -8 -19 2 -25 -1 -29 -21 -26 -18 3 -26 -3 -34 -26 -9 -24 -17 -29 -48
-30 -21 -1 -43 4 -48 11 -6 7 -21 57 -32 110 -50 230 -105 310 -212 309 -43
-1 -102 -33 -120 -65 -11 -21 -12 -19 -29 21 -20 47 -49 176 -49 219 0 59 22
102 84 172 71 79 96 134 96 215 l1 51 19 -37 c11 -20 33 -46 50 -58z m1205
-209 c11 -36 32 -45 61 -26 26 17 27 17 19 -1 -19 -46 -17 -61 7 -68 l23 -7
-26 -10 c-21 -8 -25 -15 -21 -34 5 -28 -9 -33 -29 -9 -11 14 -14 13 -26 -10
-18 -34 -33 -33 -33 3 0 25 -3 28 -27 23 l-28 -5 20 22 19 23 -24 19 -25 19
33 0 c31 0 32 2 32 40 0 42 14 54 25 21z m-1177 -357 c12 -8 31 -32 41 -52
l19 -38 -31 -18 c-18 -10 -58 -29 -89 -42 l-58 -23 -40 57 -41 56 24 24 c26
26 88 51 127 52 14 0 36 -7 48 -16z m1362 -354 c11 -28 16 -30 43 -24 29 6 30
5 14 -10 -20 -20 -23 -61 -5 -72 7 -5 4 -10 -10 -15 -14 -5 -22 -17 -22 -31
l-1 -23 -19 23 c-16 19 -26 22 -50 17 -33 -7 -37 0 -15 30 14 17 13 21 -12 42
l-28 22 38 1 c36 0 37 1 37 35 0 43 13 45 30 5z m-182 -559 c8 -24 7 -32 -6
-44 -32 -28 -157 -85 -257 -117 -206 -66 -516 -48 -598 35 -22 21 -21 27 4 59
21 27 22 27 35 7 8 -10 44 -30 81 -42 58 -20 88 -24 198 -23 160 0 280 29 424
102 53 27 99 49 103 50 3 1 11 -11 16 -27z m552 -74 c0 -9 29 -5 66 10 15 6
15 2 -5 -25 l-22 -32 25 -11 c29 -13 25 -29 -6 -29 -16 0 -19 -5 -16 -25 6
-29 1 -31 -23 -9 -17 16 -19 15 -30 -12 l-11 -29 -10 28 c-8 24 -14 28 -34 23
-28 -7 -30 0 -8 25 14 16 14 19 -12 36 l-28 18 34 5 c29 4 36 11 44 39 9 31
11 32 23 15 7 -10 13 -22 13 -27z m-508 -27 l17 -40 -82 -42 c-126 -63 -213
-89 -404 -122 -28 -5 -34 -2 -39 19 -3 13 -12 29 -20 36 -24 19 -16 29 24 29
115 0 348 72 447 138 17 11 32 21 35 21 3 1 13 -17 22 -39z m-882 -75 c39 -20
146 -45 196 -45 23 0 55 -3 71 -6 l30 -6 -21 -40 -21 -40 -75 7 c-41 3 -108
17 -148 31 -71 23 -152 69 -152 85 0 4 12 22 26 39 l27 31 19 -20 c10 -12 32
-28 48 -36z m956 -207 c-74 -395 -120 -618 -127 -618 -5 0 -9 33 -9 73 0 41
-7 96 -15 123 -17 57 -19 100 -5 109 6 3 10 11 10 16 0 6 -4 8 -9 4 -6 -3 -9
3 -9 12 1 10 -5 39 -12 66 -16 54 -31 58 -100 31 -43 -17 -53 -34 -20 -34 41
0 69 -22 76 -59 3 -20 12 -53 21 -73 15 -35 15 -49 -1 -153 -5 -33 4 -48 19
-29 10 14 13 0 17 -82 4 -68 2 -101 -6 -106 -10 -7 -1 -12 17 -9 4 0 7 -6 7
-14 0 -8 -5 -15 -11 -15 -5 0 -7 -4 -4 -10 3 -5 0 -7 -9 -4 -16 6 -66 -37 -66
-56 0 -6 11 -16 25 -22 15 -7 24 -17 21 -25 -3 -7 -3 -13 0 -13 2 0 9 10 14
23 l9 22 0 -24 c1 -13 -9 -31 -24 -43 -14 -11 -25 -25 -25 -33 0 -7 -11 -20
-25 -29 -21 -14 -23 -20 -15 -36 5 -10 10 -30 10 -45 0 -20 -6 -27 -30 -31
-22 -5 -38 -19 -60 -55 -16 -27 -30 -55 -30 -62 0 -7 -16 -21 -35 -30 l-35
-17 0 93 c0 128 -16 247 -44 320 -67 176 -76 193 -144 265 -61 64 -68 75 -64
106 4 31 2 34 -27 38 -27 4 -29 2 -18 -11 6 -9 -5 -1 -26 17 -32 27 -41 30
-58 21 -17 -9 -25 -7 -42 8 -28 25 -77 55 -77 48 0 -3 -9 -1 -19 5 -15 7 -23
6 -35 -6 -9 -8 -17 -12 -17 -7 -2 11 -13 -42 -33 -148 -15 -81 -31 -131 -85
-267 -12 -29 -21 -74 -21 -101 0 -32 -5 -51 -14 -54 -9 -3 -12 -15 -9 -31 3
-14 1 -26 -5 -26 -19 0 0 -42 24 -52 23 -11 27 -21 39 -105 5 -30 3 -43 -5
-43 -7 0 -5 -7 5 -16 9 -9 13 -19 9 -23 -4 -3 -9 -1 -11 6 -4 10 -7 10 -18 0
-7 -7 -9 -16 -5 -22 5 -6 -14 -10 -55 -9 -50 1 -65 -3 -70 -15 -12 -31 -24 12
-26 95 -1 74 1 85 45 183 75 169 96 247 119 446 3 23 5 19 7 -15 2 -42 3 -41
10 21 5 36 18 85 29 107 l21 42 -22 -4 c-13 -3 -26 -5 -30 -5 -5 -1 -9 -11 -9
-23 -1 -13 -5 2 -9 32 -6 55 -6 55 34 92 23 20 49 37 59 38 23 0 22 17 -3 30
-11 6 -18 15 -15 20 4 6 -2 7 -12 3 -10 -3 -15 -3 -12 1 4 4 -4 18 -17 31 -30
30 -30 39 0 53 27 12 36 7 36 -20 0 -11 7 -18 19 -18 14 0 17 6 13 25 -2 14
-13 30 -23 36 -19 10 -26 44 -10 53 4 3 18 33 30 66 12 33 24 60 26 60 2 0 15
-5 28 -11 22 -10 23 -13 12 -45 -6 -18 -14 -37 -18 -40 -4 -4 -7 -21 -6 -38 1
-30 1 -30 13 9 11 33 17 40 41 42 37 3 55 20 35 34 -11 7 -1 9 35 4 88 -11
117 -17 107 -24 -7 -4 -8 -20 -2 -46 5 -22 6 -67 2 -100 -6 -59 -7 -59 -12
-20 l-6 40 -14 -28 c-9 -18 -10 -31 -4 -35 6 -4 16 -22 23 -40 8 -18 18 -35
23 -38 6 -4 5 3 -1 14 -6 11 -11 27 -11 34 0 7 10 -7 21 -32 21 -48 75 -110
95 -110 25 0 68 47 95 104 16 34 29 54 30 46 0 -8 7 -2 14 15 8 19 10 36 4 47
-5 9 -10 27 -10 40 -1 16 -4 13 -9 -12 -7 -35 -7 -35 -9 -5 -1 17 -8 55 -16
85 -8 30 -12 56 -10 58 2 3 37 5 76 6 40 0 64 3 53 5 -10 2 13 12 51 22 81 21
88 22 81 10 -7 -11 12 -27 45 -34 24 -6 25 -4 21 24 -4 27 -8 30 -31 25 -14
-3 -3 5 24 16 28 12 82 38 120 58 l70 36 29 -57 30 -58 -18 -93z m-1511 113
c14 -27 18 -29 46 -21 l32 9 -23 -24 -23 -25 23 -25 23 -24 -29 2 c-25 2 -29
-1 -26 -22 2 -24 2 -24 -19 -5 -21 19 -21 19 -39 -4 -23 -28 -28 -28 -22 3 4
22 1 25 -24 25 l-28 0 22 22 22 22 -23 24 -22 25 37 -7 c34 -6 37 -5 43 24 4
16 8 30 11 30 2 0 10 -13 19 -29z m905 -31 c43 -84 63 -235 39 -297 -5 -15
-24 -43 -41 -60 -30 -31 -32 -32 -51 -15 -26 22 -67 110 -67 143 0 64 68 269
89 269 6 0 20 -18 31 -40z m1610 -93 c0 -7 6 -21 13 -30 10 -14 18 -15 44 -8
l33 10 -15 -29 c-14 -27 -13 -29 13 -49 l27 -20 -32 -1 c-30 0 -33 -3 -33 -32
0 -32 0 -32 -16 -10 -19 28 -28 28 -42 0 l-11 -23 0 23 c-1 18 -7 22 -33 22
l-31 0 22 24 22 24 -28 20 -28 21 38 1 c36 0 37 1 37 35 0 19 5 35 10 35 6 0
10 -6 10 -13z m-2905 -208 c6 -27 9 -30 37 -24 l30 7 -17 -25 c-16 -25 -16
-26 4 -39 28 -17 26 -26 -4 -20 -22 4 -25 1 -25 -23 0 -27 -1 -28 -20 -10 -19
17 -20 17 -38 -5 l-18 -22 1 28 c0 27 -3 29 -33 26 l-33 -2 28 24 28 24 -20
22 -20 23 33 -5 c30 -4 34 -2 39 24 7 37 20 36 28 -3z m2189 -113 c8 -19 19
-59 26 -90 14 -68 4 -95 -98 -253 -49 -76 -79 -135 -97 -194 -45 -142 -66
-187 -132 -286 -36 -53 -69 -106 -73 -119 -11 -29 -10 -28 -55 -7 -35 17 -43
31 -26 48 22 23 131 257 156 335 32 97 57 151 126 266 56 93 121 230 140 292
7 23 14 42 15 42 2 0 10 -15 18 -34z m-1075 -196 c108 -137 133 -182 178 -332
5 -18 23 -25 23 -10 -1 31 -72 218 -92 240 -13 15 -48 59 -78 97 -29 39 -57
76 -63 82 -6 9 -4 15 7 19 12 5 38 -16 94 -76 92 -99 97 -107 82 -125 -9 -11
-7 -14 16 -12 25 2 30 -4 71 -103 56 -133 71 -201 78 -370 3 -74 11 -153 16
-176 8 -32 7 -49 -5 -77 -21 -50 -107 -140 -156 -162 l-40 -18 -54 47 c-117
100 -154 191 -195 480 -7 49 -26 114 -50 170 -46 108 -75 202 -66 216 13 20
33 9 51 -27 9 -21 39 -75 66 -120 27 -46 57 -103 68 -128 24 -55 45 -61 26 -7
-7 20 -17 57 -21 81 -4 24 -35 98 -68 165 -47 94 -62 134 -65 177 -6 74 10 82
44 22 15 -27 55 -93 90 -148 44 -71 70 -127 90 -192 15 -51 31 -93 36 -93 9 0
5 25 -24 122 -12 42 -47 110 -89 177 -111 179 -138 241 -94 225 8 -4 64 -68
124 -144z m-199 80 c0 -16 -4 -30 -10 -30 -11 0 -14 43 -3 53 11 12 13 8 13
-23z m1484 -97 c6 2 22 8 35 12 l23 7 -23 -32 -24 -32 24 -19 23 -19 -26 0
c-23 0 -26 -4 -26 -32 l-1 -33 -16 29 -16 30 -14 -27 c-17 -34 -19 -34 -18 1
0 25 -3 27 -35 24 l-34 -3 24 26 c22 23 22 26 7 43 -23 26 -21 29 12 24 26 -4
29 -1 36 35 l8 38 15 -38 c8 -21 20 -36 26 -34z m-1729 -53 c9 -47 21 -100 27
-118 13 -45 -15 -136 -96 -305 -81 -170 -121 -235 -261 -419 -144 -190 -158
-225 -156 -402 0 -67 12 -211 26 -321 15 -110 35 -269 46 -353 55 -422 43
-719 -40 -1058 -135 -547 -400 -1041 -839 -1564 -77 -91 -135 -171 -156 -214
l-34 -69 -9 39 c-11 54 -7 218 6 242 6 12 48 65 92 118 246 294 457 615 580
882 137 296 229 592 275 887 27 175 16 469 -31 805 -20 146 -41 301 -47 345
-6 44 -11 148 -11 230 -2 229 21 294 179 505 109 145 171 246 239 385 59 120
145 347 166 437 16 68 22 61 44 -52z m251 54 c6 -21 37 -90 69 -151 31 -62 55
-118 53 -124 -2 -7 -30 40 -62 104 -60 120 -81 140 -106 100 -10 -15 -11 -14
-6 7 3 14 8 44 12 68 8 52 24 50 40 -4z m2044 -69 c34 7 38 0 13 -27 -17 -19
-16 -20 7 -39 l25 -19 -34 0 c-31 0 -33 -2 -26 -27 6 -27 6 -27 -14 -9 -21 19
-22 19 -47 -5 l-26 -24 4 30 c3 26 0 30 -25 33 l-28 3 23 19 23 18 -24 26 -24
25 36 -6 c29 -4 38 -2 42 11 16 52 17 52 32 18 12 -30 17 -33 43 -27z m-1193
-37 c-3 -8 -6 -5 -6 6 -1 11 2 17 5 13 3 -3 4 -12 1 -19z m-1417 -10 c0 -40
12 -49 49 -38 l34 9 -22 -22 c-27 -29 -27 -41 2 -60 22 -16 22 -16 -10 -16
-30 -1 -33 -4 -33 -33 l-1 -33 -17 28 c-20 32 -28 34 -42 7 -16 -29 -27 -24
-22 10 4 28 2 30 -28 30 l-33 0 26 21 c26 20 26 21 10 46 l-17 25 33 -7 c29
-6 33 -4 44 24 13 36 27 40 27 9z m512 -122 c-8 -16 -14 -55 -14 -88 1 -52 6
-66 45 -126 58 -88 83 -138 91 -187 13 -77 58 -196 93 -246 30 -44 33 -55 24
-75 -5 -13 -24 -30 -40 -39 -28 -14 -34 -14 -68 0 -43 18 -98 67 -118 106 -8
15 -23 89 -35 165 -11 77 -29 185 -40 242 -28 145 -26 199 10 282 17 38 30 77
31 87 1 10 9 -7 18 -37 15 -49 15 -58 3 -84z m68 -106 c17 -46 34 -109 37
-140 l5 -55 -51 80 c-45 69 -51 86 -51 131 0 57 9 90 20 77 4 -4 22 -46 40
-93z m807 68 c-3 -7 -5 -2 -5 12 0 14 2 19 5 13 2 -7 2 -19 0 -25z m1593 -11
c0 -5 16 -7 36 -4 34 6 35 5 20 -12 -23 -25 -20 -40 12 -53 l27 -12 -27 -4
c-24 -3 -28 -8 -28 -33 0 -28 -1 -29 -16 -15 -21 21 -30 20 -48 -5 -14 -21
-14 -21 -18 7 -3 25 -7 29 -32 27 l-30 -2 22 21 22 22 -23 24 -22 24 35 -4
c33 -3 35 -1 38 32 3 33 4 34 18 16 8 -11 14 -24 14 -29z m-3609 -192 c31 7
38 -5 14 -25 -21 -17 -19 -26 8 -35 21 -7 20 -8 -8 -14 -26 -6 -30 -11 -30
-39 l0 -33 -19 27 -19 26 -24 -29 -24 -28 6 33 7 32 -44 0 -43 1 38 20 c42 22
43 25 20 52 -18 19 -17 19 14 13 27 -6 32 -4 38 16 4 13 13 29 19 37 9 11 12
7 14 -23 3 -36 5 -37 33 -31z m2735 -41 c14 -33 17 -35 46 -28 l32 6 -18 -27
c-10 -15 -16 -28 -14 -29 2 -2 14 -10 28 -19 l24 -17 -32 0 c-29 0 -32 -3 -32
-32 l0 -31 -24 22 -24 22 -20 -28 -21 -28 -1 33 c0 27 -4 32 -25 32 -31 0 -32
11 -4 28 l21 13 -21 23 c-28 30 -27 33 13 28 33 -4 35 -2 41 32 4 20 9 36 12
36 2 0 11 -16 19 -36z m-818 -200 c37 -24 52 -74 52 -171 0 -150 -51 -369
-122 -519 -34 -74 -100 -152 -143 -170 -61 -25 -120 9 -156 88 -21 46 -24 68
-24 163 1 61 4 123 8 138 l8 29 31 -43 c26 -36 31 -54 38 -133 5 -60 4 -96 -3
-108 -17 -26 0 -34 24 -12 31 27 152 282 187 394 53 167 53 310 -1 310 -24 0
-54 16 -46 24 3 3 20 12 39 20 38 17 71 13 108 -10z m-848 -31 l35 -9 -32 -17
c-51 -27 -63 -53 -63 -134 0 -91 30 -189 111 -360 64 -137 101 -193 125 -193
13 0 13 3 1 20 -12 17 -11 29 4 87 10 38 18 79 19 93 0 22 70 110 86 110 4 0
4 -53 2 -117 -5 -137 -30 -217 -85 -272 -31 -31 -37 -33 -84 -29 -43 4 -57 12
-95 49 -25 24 -60 69 -79 99 -46 75 -106 227 -107 270 0 19 -9 71 -19 115 -34
146 -18 247 45 286 32 20 63 21 136 2z m2319 -45 l33 4 -18 -27 c-17 -27 -17
-28 7 -46 l24 -19 -37 0 c-35 0 -38 -2 -38 -27 l-1 -28 -22 28 c-17 20 -32 27
-57 27 l-33 0 22 24 23 24 -22 12 c-24 13 -19 25 12 25 20 0 30 11 43 50 6 17
9 15 20 -15 11 -32 15 -35 44 -32z m-1039 33 c47 -25 63 -76 135 -411 122
-576 251 -979 425 -1335 139 -284 248 -435 509 -708 114 -118 141 -153 141
-176 0 -15 -3 -69 -6 -119 l-7 -91 -29 46 c-16 25 -75 93 -131 152 -162 168
-309 330 -364 401 -86 112 -218 347 -311 555 -127 282 -290 825 -383 1274 -57
273 -72 317 -124 367 -42 41 -42 42 -22 52 37 18 129 14 167 -7z m-565 -58
c-3 -19 -15 -54 -25 -79 -11 -25 -15 -42 -9 -38 15 9 59 104 59 127 0 10 5 15
10 12 30 -18 -7 -221 -65 -361 -57 -138 -51 -132 -92 -93 -36 35 -123 143
-123 153 0 3 8 6 18 6 10 0 27 6 38 14 17 13 14 14 -25 4 -41 -10 -46 -10 -63
12 l-19 24 44 11 c87 22 195 131 219 221 10 35 15 41 26 32 9 -8 12 -22 7 -45z
m278 36 c126 -50 141 -60 159 -115 17 -50 15 -71 -7 -125 -4 -11 0 -18 14 -22
15 -3 21 0 21 11 0 35 12 -2 34 -106 l23 -110 -19 -31 c-16 -25 -18 -34 -8
-46 7 -8 18 -15 26 -15 18 0 24 -13 39 -78 14 -60 10 -72 -27 -72 -28 0 -26
-122 2 -152 11 -12 20 -25 20 -30 0 -4 -9 -17 -20 -28 -23 -23 -25 -57 -6 -82
14 -19 32 -25 21 -8 -13 22 7 29 32 13 l26 -17 -5 27 c-3 18 1 35 11 49 17 20
18 18 39 -60 12 -44 19 -88 15 -98 -13 -37 -54 -83 -69 -77 -7 3 -11 10 -7 16
3 5 1 7 -5 3 -6 -3 -27 3 -46 15 -40 23 -49 37 -13 18 18 -9 20 -9 10 2 -7 7
-13 21 -13 30 0 21 -7 26 -41 33 -36 7 -59 17 -55 25 3 4 -4 7 -15 7 -12 0
-18 -5 -15 -13 4 -10 1 -10 -14 0 -11 6 -20 17 -20 24 0 7 -5 13 -11 13 -5 0
-7 -5 -3 -12 4 -7 3 -8 -4 -4 -6 4 -9 13 -6 20 3 7 -2 16 -12 20 -12 5 -15 2
-10 -10 6 -15 4 -15 -19 0 -14 9 -78 46 -142 82 -129 72 -137 78 -108 72 11
-2 20 3 20 10 0 8 9 20 19 28 19 13 18 15 -11 42 l-30 29 26 44 26 44 5 -65
c5 -63 5 -64 20 -40 10 17 15 58 17 130 1 58 6 118 13 134 43 113 73 291 68
409 -1 48 -2 87 0 87 2 0 27 -9 55 -21z m-953 -52 c0 -84 114 -197 198 -197
16 0 46 11 66 25 41 28 46 17 16 -32 -19 -32 -34 -39 -95 -46 l-30 -4 33 -8
c17 -4 32 -11 32 -15 0 -26 -162 -172 -175 -158 -13 15 -58 120 -84 196 -34
99 -46 221 -23 244 9 9 12 5 12 -17 1 -17 7 -41 15 -55 14 -24 15 -23 9 17 -7
47 1 93 16 93 6 0 10 -19 10 -43z m-276 -41 c-10 -84 18 -241 71 -401 5 -16 5
-17 -4 -5 -11 17 -16 14 -25 -17 -4 -13 -3 -23 2 -23 5 0 21 -12 36 -27 21
-21 25 -22 20 -7 -3 10 13 -15 37 -56 29 -51 42 -85 40 -105 -1 -22 5 -37 24
-55 l25 -24 -36 -37 c-21 -21 -41 -36 -46 -33 -9 6 -61 -28 -90 -57 -9 -9 -23
-19 -30 -22 -10 -4 -8 -10 7 -22 20 -16 18 -18 -55 -86 -41 -38 -77 -64 -79
-58 -2 6 -18 -4 -37 -22 -18 -18 -31 -35 -29 -39 3 -5 -6 -15 -20 -24 -14 -9
-25 -12 -25 -6 0 5 -10 10 -23 10 -22 0 -24 6 -37 105 -7 58 -10 108 -6 112 3
3 6 1 6 -5 0 -16 27 -15 32 0 3 7 -1 19 -9 26 -7 7 -13 22 -13 33 0 11 -7 27
-15 35 -13 14 -15 14 -15 1 0 -9 4 -17 8 -19 4 -1 5 -16 2 -33 -7 -36 -35 155
-50 342 -17 211 10 312 121 456 42 55 57 68 87 73 21 3 46 12 57 19 18 11 44
20 68 24 4 0 4 -23 1 -53z m-563 -32 c34 6 39 -8 8 -25 l-21 -11 23 -24 22
-24 -32 0 c-31 0 -33 -2 -26 -27 l7 -28 -24 22 -24 23 -22 -23 -22 -22 6 33
c6 30 5 32 -22 33 l-29 1 28 11 c33 13 34 29 5 51 -23 16 -22 17 15 11 28 -5
38 -2 42 10 16 49 17 50 27 16 8 -30 12 -33 39 -27z m2869 -120 c23 -9 39 -22
37 -28 -5 -16 -47 -20 -48 -4 0 7 -4 4 -9 -7 -8 -19 -9 -19 -9 3 -1 12 -1 25
0 28 0 4 -5 11 -13 15 -21 14 -2 10 42 -7z m50 -87 c0 -5 -4 -5 -10 -2 -5 3
-10 14 -10 23 0 15 2 15 10 2 5 -8 10 -19 10 -23z m-1693 -69 c-3 -8 -6 -5 -6
6 -1 11 2 17 5 13 3 -3 4 -12 1 -19z m-90 -130 c-2 -24 -4 -7 -4 37 0 44 2 63
4 43 2 -21 2 -57 0 -80z m2468 56 c8 -12 17 -13 38 -5 29 11 36 1 12 -19 -22
-18 -18 -33 13 -52 l27 -17 -34 -1 c-32 0 -33 -1 -27 -32 l6 -32 -24 23 -24
22 -21 -27 -21 -27 0 32 c0 28 -3 31 -32 31 l-31 0 24 26 24 25 -25 20 -25 20
35 -3 c31 -3 35 0 44 31 9 30 11 32 20 17 6 -10 16 -24 21 -32z m-4193 -14 c3
-22 7 -25 38 -21 34 3 34 2 17 -16 -21 -24 -21 -32 0 -55 15 -17 15 -18 -12
-18 -26 0 -27 -2 -21 -32 l6 -32 -26 25 -25 24 -19 -25 -20 -25 0 33 c0 29 -3
32 -32 32 l-33 1 23 18 c27 23 28 38 5 64 -17 18 -17 19 20 12 35 -7 38 -6 48
25 12 34 25 30 31 -10z m3146 -34 l34 7 -17 -27 c-17 -26 -17 -27 5 -51 l23
-25 -26 0 c-24 0 -27 -4 -27 -32 l0 -31 -24 22 -24 22 -21 -28 c-18 -23 -21
-24 -16 -7 9 36 -3 51 -38 47 -18 -3 -27 -1 -22 4 6 4 16 16 24 26 12 15 11
20 -8 41 l-22 23 37 -1 c35 -1 38 2 47 34 l9 35 16 -33 c14 -29 19 -32 50 -26z
m-1431 -78 c-3 -8 -6 -5 -6 6 -1 11 2 17 5 13 3 -3 4 -12 1 -19z m-1195 -74
l32 6 -24 -25 c-22 -23 -22 -26 -7 -43 23 -26 21 -29 -13 -24 -25 3 -30 0 -36
-22 -8 -34 -24 -34 -24 0 0 24 -3 26 -31 20 l-31 -6 17 26 c16 24 16 27 -1 45
-16 18 -16 19 14 19 26 0 31 4 37 32 l7 31 14 -33 c13 -30 17 -32 46 -26z
m848 -69 c13 -14 21 -25 18 -25 -2 0 -15 11 -28 25 -13 14 -21 25 -18 25 2 0
15 -11 28 -25z m2369 -105 c6 0 21 4 35 10 29 10 35 0 11 -20 -20 -17 -19 -30
6 -56 l22 -23 -29 2 c-27 2 -29 0 -27 -33 l1 -35 -22 28 -23 29 -21 -29 -21
-28 -1 33 c0 29 -3 32 -32 32 l-31 0 24 26 24 26 -22 18 c-30 24 -29 27 12 22
26 -3 36 0 40 12 16 52 17 52 31 19 8 -18 18 -33 23 -33z m-1792 14 c28 -9 32
-13 16 -14 -13 0 -23 -4 -23 -10 0 -5 -5 -9 -12 -7 -6 1 -14 -9 -18 -23 -6
-21 -8 -17 -18 28 -15 67 -15 67 3 52 8 -7 32 -18 52 -26z m94 -61 c-3 -32 -7
-48 -9 -35 -5 29 -22 29 -22 -1 0 -28 -17 -47 -42 -47 -15 0 -17 8 -17 50 2
47 3 49 23 38 19 -10 20 -10 7 5 -12 15 -11 17 2 17 10 0 14 6 11 15 -5 11 1
15 22 15 l29 0 -4 -57z m-650 23 c-9 -11 -9 -16 -1 -21 7 -4 9 -16 7 -27 -5
-16 -3 -17 10 -6 9 7 -3 -24 -26 -70 -39 -78 -60 -108 -42 -59 7 18 5 26 -9
35 -22 13 -29 6 -36 -36 -10 -68 -16 -95 -21 -110 -4 -13 -2 -12 11 3 11 13
10 5 -5 -25 -13 -25 -24 -50 -25 -57 -1 -6 -7 -19 -13 -30 -11 -16 -11 -16 -6
5 10 35 -3 26 -20 -14 -18 -43 -21 -79 -5 -54 8 12 10 9 10 -11 0 -20 10 -33
41 -53 33 -23 40 -32 34 -49 -4 -12 -9 -33 -12 -47 -3 -14 -11 -29 -17 -33 -7
-6 -5 -7 6 -4 14 5 15 1 8 -23 -5 -16 -11 -34 -15 -40 -4 -6 -10 -32 -14 -58
-4 -28 -12 -46 -19 -45 -14 3 -14 -1 -12 -75 1 -29 -3 -59 -10 -67 -6 -7 -18
-68 -27 -136 -11 -87 -20 -128 -32 -137 -12 -10 -13 -15 -3 -21 14 -8 6 -41
-10 -41 -6 0 -8 -6 -5 -14 3 -8 -1 -13 -11 -12 -19 1 -23 -31 -8 -52 8 -11 11
-10 17 5 11 26 10 -51 0 -102 -5 -22 -9 -34 -10 -27 0 6 -7 12 -14 12 -9 0
-12 -11 -9 -36 3 -25 7 -32 13 -23 6 10 9 6 9 -13 0 -20 -5 -28 -17 -29 -11 0
-13 -3 -5 -6 6 -2 12 -17 11 -31 0 -15 -3 -21 -6 -14 -9 23 -34 14 -28 -11 4
-12 2 -35 -4 -49 -11 -30 -4 -43 16 -27 10 9 13 6 13 -15 0 -16 -5 -26 -15
-26 -13 0 -13 -3 -3 -19 10 -16 9 -27 -5 -55 -12 -26 -13 -36 -4 -36 8 0 7 -4
-3 -10 -10 -6 -11 -10 -2 -10 15 0 16 -27 0 -32 -6 -2 -12 -13 -14 -24 -2 -10
-5 -32 -8 -48 -5 -24 -4 -27 8 -16 13 10 14 -6 10 -122 -2 -73 -9 -185 -15
-248 -5 -63 -10 -173 -9 -243 0 -70 -4 -137 -10 -147 -7 -13 -6 -27 2 -45 9
-19 9 -36 0 -73 -7 -26 -14 -55 -17 -64 -2 -10 0 -20 6 -23 5 -4 8 -89 7 -206
-2 -162 -6 -202 -17 -209 -13 -7 -13 -10 1 -23 13 -13 15 -60 16 -304 1 -158
2 -288 2 -288 6 0 5 -195 -1 -207 -6 -10 -5 -19 1 -23 18 -11 11 -32 -12 -38
-12 -4 -19 -9 -16 -13 4 -3 0 -24 -8 -46 -18 -51 -18 -50 9 -46 16 2 22 -2 21
-14 -1 -10 2 -15 7 -12 5 3 14 -7 19 -21 14 -38 13 -58 -4 -52 -8 3 -17 -1
-20 -9 -4 -9 1 -14 14 -14 25 0 26 -16 2 -29 -33 -18 -113 -288 -106 -357 1
-16 5 -54 7 -85 6 -77 35 -126 50 -85 7 17 20 103 17 112 -1 4 2 10 7 13 13
10 36 54 24 46 -6 -3 -11 -2 -11 3 0 11 67 72 78 72 4 0 13 -17 19 -37 6 -21
27 -80 47 -132 20 -52 34 -96 31 -99 -3 -3 0 -11 5 -17 24 -28 110 -218 104
-227 -4 -6 -2 -8 3 -5 6 4 14 0 17 -9 4 -9 2 -13 -5 -8 -8 4 -7 0 0 -15 7 -11
14 -21 17 -21 3 0 2 5 -1 10 -3 6 -4 10 -2 10 2 0 25 -30 50 -67 97 -141 119
-170 190 -248 40 -44 92 -104 117 -134 l44 -53 -30 5 c-16 4 -64 11 -106 18
-76 11 -77 12 -80 42 l-3 31 -26 -26 c-32 -32 -63 -28 -80 12 -12 25 -15 26
-37 14 -21 -11 -27 -10 -45 7 -30 27 -57 25 -57 -5 0 -13 6 -27 13 -29 6 -3
-21 -6 -62 -6 -65 -1 -73 1 -69 17 4 15 -2 17 -46 13 -28 -1 -56 -7 -63 -13
-6 -5 -42 -9 -78 -9 -37 0 -79 -5 -93 -11 l-27 -10 30 -14 c25 -11 27 -13 8
-14 -12 0 -29 -3 -38 -6 -11 -5 -16 -2 -15 7 4 29 -1 39 -18 39 -24 0 -61 -39
-65 -70 -6 -38 -40 -38 -54 1 -10 25 -9 39 1 70 8 22 10 42 5 45 -5 2 -7 28
-5 57 2 29 0 60 -6 70 -9 17 -7 17 12 7 15 -8 20 -8 16 -1 -4 6 -1 11 7 11 17
0 30 27 20 43 -3 7 5 3 18 -9 34 -30 88 -55 129 -59 40 -5 107 -25 163 -49
l37 -16 0 29 c0 17 -4 33 -10 36 -6 4 -7 -1 -3 -11 4 -12 3 -15 -5 -10 -7 4
-12 12 -12 19 0 6 -18 29 -39 52 -22 22 -60 80 -85 128 -25 49 -49 94 -55 100
-5 7 -13 26 -16 42 -4 17 -16 44 -26 60 -22 38 -61 169 -87 300 -19 94 -29
222 -33 448 -2 54 -6 92 -10 86 -5 -8 -9 -4 -12 12 -4 21 -5 21 -7 -6 -2 -30
-2 -30 -10 -5 -8 24 -8 23 -9 -8 -1 -18 3 -31 8 -28 4 3 5 -12 1 -33 -4 -20
-4 -46 0 -57 4 -10 4 -50 0 -89 -4 -38 -4 -77 0 -85 11 -23 1 -40 -23 -40 -18
0 -19 -2 -7 -10 8 -5 11 -10 6 -10 -6 0 -5 -5 2 -12 7 -7 12 -17 12 -23 0 -5
-4 -4 -9 4 -7 11 -10 9 -16 -8 -3 -12 -11 -19 -16 -16 -14 9 -11 -25 5 -40 10
-10 16 -11 25 -2 6 6 11 7 11 2 0 -5 6 -1 13 9 12 16 13 16 13 -1 1 -10 4 -27
8 -38 6 -16 6 -17 -3 -5 -9 12 -11 11 -11 -7 0 -13 5 -23 10 -23 12 0 13 -50
1 -69 -7 -11 -10 -10 -18 4 -5 9 -14 17 -19 18 -13 1 -22 -54 -12 -81 4 -13 8
-54 8 -91 0 -52 6 -83 26 -127 20 -46 23 -63 15 -76 -8 -13 -8 -18 0 -18 7 0
9 -10 5 -27 -4 -16 -6 -32 -6 -38 0 -5 2 -42 3 -82 3 -70 3 -71 -22 -69 -27 3
-39 25 -40 73 -1 18 -7 36 -15 40 -7 4 -16 24 -18 43 -3 19 -14 69 -26 110
-24 85 -52 337 -45 390 3 19 14 47 24 62 30 42 36 88 13 102 -10 6 -23 11 -29
11 -5 0 -9 9 -7 20 1 11 3 34 5 51 2 26 5 30 27 26 14 -3 21 -1 17 4 -5 5 -11
8 -14 6 -11 -6 -33 60 -33 99 0 26 4 39 13 39 8 0 22 9 31 19 17 18 17 22 2
43 -9 12 -16 17 -16 10 0 -6 -6 -12 -14 -12 -9 0 -13 10 -12 31 1 17 -4 42
-11 56 -17 32 -17 100 0 106 10 4 10 7 0 18 -19 20 -17 115 3 123 14 5 13 10
-5 39 -24 39 -39 117 -22 117 6 0 11 16 11 38 0 20 5 44 10 52 6 10 1 28 -17
59 -23 40 -25 48 -14 75 7 17 14 65 15 106 2 61 -1 80 -16 101 -23 31 -21 77
4 93 15 9 23 5 45 -18 18 -19 28 -25 31 -17 3 8 -1 17 -8 21 -7 4 -13 18 -14
31 0 13 -7 25 -13 25 -7 1 -16 2 -19 3 -4 0 1 13 11 27 13 20 14 28 4 40 -10
13 -10 17 0 23 18 12 31 209 17 266 -5 20 -11 25 -26 20 -17 -5 -20 -2 -20 24
0 35 22 42 39 14 8 -13 10 10 11 83 0 111 8 167 21 158 5 -3 5 5 0 18 -5 14
-4 62 4 123 7 55 16 145 21 200 5 73 10 93 16 75 4 -14 5 3 1 40 -4 36 -7 103
-7 149 -1 54 -5 86 -12 88 -8 3 2 35 26 91 100 232 118 282 199 552 l19 65 0
-55 c-1 -30 -5 -66 -11 -80 -11 -29 -32 -197 -47 -390 -14 -167 -20 -210 -29
-190 -6 17 -16 18 -43 6 -22 -10 -24 -46 -3 -46 9 0 18 -7 22 -16 5 -13 7 -13
14 -2 12 17 11 -25 -1 -197 -6 -77 -12 -169 -15 -205 -7 -111 -17 -234 -22
-260 -2 -14 -8 -151 -14 -304 -5 -157 -14 -285 -20 -292 -7 -8 -6 -13 2 -16 9
-3 9 -12 0 -41 -7 -20 -12 -60 -11 -89 4 -142 4 -181 2 -280 -2 -91 -4 -106
-17 -102 -18 7 -55 -34 -48 -54 3 -7 -2 -21 -11 -31 -18 -20 -12 -81 8 -81 6
0 22 -10 36 -21 14 -11 18 -17 10 -13 -13 7 -13 5 -2 -9 8 -9 13 -29 11 -44
-3 -35 10 -84 27 -101 22 -21 29 46 27 241 -2 159 -1 177 14 177 13 0 14 3 5
12 -13 13 -18 299 -5 311 3 4 5 36 4 72 -2 53 1 66 14 71 13 5 14 8 3 15 -10
7 -12 41 -10 156 2 81 8 153 13 159 6 7 6 13 1 16 -6 2 -6 37 -1 88 4 47 8
118 8 158 1 65 3 72 21 72 11 0 20 5 20 10 0 6 -7 10 -15 10 -21 0 -20 24 15
425 5 61 11 162 14 225 3 63 10 142 16 175 5 33 10 87 10 120 0 33 5 79 10
102 11 48 23 178 25 273 2 83 3 92 14 86 5 -4 7 3 4 14 -7 25 -23 16 -23 -12
0 -12 -2 -19 -5 -16 -3 3 3 54 14 114 11 60 22 143 26 184 12 157 17 186 26
165 7 -17 8 -16 8 8 1 15 8 42 17 59 21 41 33 78 49 158 7 36 27 117 44 180
17 63 31 121 31 128 0 12 298 331 309 332 2 0 -2 -6 -8 -14z m741 -7 l43 -21
1 -336 c1 -435 25 -667 78 -745 21 -30 21 -35 8 -55 -19 -28 -43 -28 -75 2
-51 48 -75 128 -103 357 -25 197 -24 819 1 819 3 0 24 -9 47 -21z m272 -154
c49 -29 43 -7 71 -252 37 -315 21 -547 -46 -695 -14 -30 -31 -50 -48 -57 -39
-15 -101 -30 -101 -25 0 3 11 20 24 37 35 46 62 137 77 251 13 109 7 497 -9
601 -17 100 -23 165 -17 165 4 0 26 -11 49 -25z m-369 -305 c11 -427 11 -423
-9 -449 -9 -12 -7 -12 12 -2 13 7 25 11 26 9 1 -2 8 -32 15 -68 12 -59 25
-103 46 -154 6 -14 5 -17 -3 -12 -16 10 -15 -32 1 -64 12 -23 39 -33 60 -22 5
2 -4 18 -20 36 -24 26 -24 28 -3 10 56 -48 114 -56 206 -30 56 17 159 31 130
18 -32 -14 8 -24 42 -10 l27 11 -25 6 c-17 5 13 14 103 30 70 13 131 21 134
17 3 -3 -1 -6 -11 -6 -16 0 -16 -2 2 -27 10 -16 22 -36 25 -46 4 -9 12 -16 19
-15 7 2 12 -2 11 -8 -1 -6 10 -9 25 -6 25 3 27 1 30 -35 1 -21 7 -40 12 -41 6
-2 8 -8 4 -13 -3 -5 0 -9 5 -9 7 0 11 -18 10 -42 -1 -29 9 -66 29 -113 17 -38
32 -64 32 -56 0 8 2 12 5 9 3 -3 -6 -79 -19 -169 -59 -392 -61 -697 -8 -1064
35 -240 47 -367 34 -347 -8 12 -13 12 -31 1 -23 -15 -24 -19 -15 -43 3 -9 10
-13 15 -10 5 3 9 -12 10 -33 0 -30 2 -34 9 -18 5 11 9 16 10 10 1 -5 5 1 9 15
5 17 10 -4 15 -68 4 -52 5 -96 2 -100 -3 -3 -6 8 -6 24 0 39 -19 70 -21 34 -1
-14 -1 -29 0 -34 1 -5 -3 -13 -10 -17 -9 -5 -8 -11 3 -23 9 -8 18 -12 22 -9 3
4 6 0 7 -8 0 -8 4 -5 8 6 6 14 10 0 15 -50 4 -38 21 -194 37 -345 62 -564 69
-626 68 -655 -2 -30 -2 -30 -9 5 l-7 35 -2 -40 c-1 -22 -6 -49 -10 -60 -8 -20
6 -55 21 -55 5 0 8 19 8 42 0 76 7 35 13 -72 3 -58 2 -89 -2 -70 -7 34 -7 34
-16 10 -10 -29 -13 -70 -5 -70 3 0 3 -23 1 -51 -2 -40 0 -50 10 -47 8 3 16 22
19 44 l5 39 8 -49 c4 -27 7 -61 6 -75 0 -23 -1 -24 -9 -6 -5 11 -9 14 -9 6 -1
-11 -4 -11 -18 0 -9 8 -14 9 -10 3 4 -7 0 -17 -8 -24 -22 -18 -18 -37 9 -55
32 -21 80 -30 70 -13 -4 6 8 2 27 -10 19 -11 71 -41 114 -65 l80 -44 -3 -164
c-2 -153 -26 -638 -37 -739 -2 -25 -7 -83 -11 -129 -5 -68 -10 -88 -26 -101
-17 -13 -19 -22 -12 -51 l8 -34 7 35 c5 29 7 24 8 -27 2 -97 4 -96 -102 -61
-51 16 -121 38 -157 50 -36 11 -69 24 -73 28 -5 4 2 59 16 121 14 63 31 146
37 184 6 39 15 95 20 125 38 220 63 730 39 783 -16 35 -26 26 -35 -29 -4 -28
-11 -44 -18 -41 -7 3 -20 -1 -30 -8 -17 -13 -17 -14 2 -24 13 -7 22 -7 31 2
10 10 11 -12 4 -103 -4 -63 -8 -143 -8 -177 0 -35 -4 -63 -9 -63 -5 0 -17 -9
-27 -21 -14 -16 -17 -34 -15 -78 4 -64 -2 -90 -15 -70 -4 8 -11 10 -15 6 -4
-3 -2 -12 3 -19 11 -14 9 -69 -3 -89 -4 -7 -9 -36 -10 -64 -4 -113 -21 -257
-32 -264 -6 -3 -25 -33 -42 -66 -17 -33 -33 -61 -34 -62 -1 -2 -40 10 -87 26
-46 16 -78 30 -71 30 6 1 12 6 12 12 0 5 -6 7 -12 3 -9 -5 -9 -2 1 9 11 14 11
17 0 18 -8 1 -24 3 -36 4 -14 1 -23 -3 -23 -12 0 -7 10 -18 23 -23 12 -5 18
-9 12 -10 -9 0 -254 81 -265 88 -2 2 2 7 10 12 9 6 17 5 22 -2 5 -9 13 -9 31
-1 19 9 25 18 23 37 -2 16 1 23 9 19 7 -2 16 0 20 6 3 6 -1 11 -10 11 -12 0
-4 15 28 53 164 195 274 463 311 762 36 287 52 733 27 758 -6 6 -12 9 -15 6
-2 -2 -6 -61 -8 -131 -3 -82 -9 -133 -18 -143 -10 -12 -10 -15 0 -15 15 0 9
-132 -15 -330 -38 -303 -77 -444 -180 -655 -72 -145 -147 -245 -242 -318 l-59
-45 -130 45 c-71 25 -160 54 -198 64 -38 10 -71 21 -73 23 -8 8 -32 196 -68
535 -12 110 -13 147 -4 155 9 8 10 7 4 -3 -5 -9 -4 -12 3 -7 12 7 11 71 -2 83
-4 4 -11 1 -16 -7 -8 -13 -10 -12 -10 3 0 9 5 17 12 17 7 0 4 6 -5 13 -14 10
-18 38 -23 153 l-7 141 24 6 c19 5 21 9 11 19 -6 6 -12 22 -12 34 0 13 -8 24
-18 26 -16 4 -19 16 -21 67 -1 34 3 70 9 81 8 15 8 20 -3 20 -8 0 -14 15 -16
43 -3 65 -30 259 -36 265 -14 14 -19 -19 -16 -124 2 -118 -4 -168 -19 -144 -5
7 -9 -2 -12 -25 -3 -24 1 -42 10 -52 13 -12 12 -16 -2 -26 -25 -19 -32 -97
-11 -140 9 -20 20 -35 24 -32 4 2 8 -9 8 -25 0 -18 -6 -30 -14 -30 -8 0 -13
-12 -13 -34 0 -19 -5 -47 -10 -62 -12 -32 -9 -36 25 -36 14 0 28 -4 31 -9 6
-10 -13 -50 -30 -62 -7 -6 -5 -7 6 -4 18 6 28 -18 28 -68 0 -17 4 -35 9 -40 5
-6 12 -20 16 -33 6 -20 4 -23 -16 -20 -28 4 -29 -3 -12 -92 7 -36 12 -84 13
-107 0 -23 3 -48 6 -57 10 -25 24 -19 25 12 0 23 2 21 13 -15 8 -23 17 -59 21
-80 5 -31 4 -36 -6 -25 -7 6 -17 12 -22 12 -9 0 1 -59 13 -75 13 -18 21 -65
10 -65 -5 0 -1 -9 10 -20 11 -11 20 -28 20 -38 0 -11 6 -32 14 -48 8 -16 17
-39 21 -52 6 -22 5 -23 -32 -16 -50 9 -57 15 -73 66 -7 24 -25 81 -41 128 -43
135 -75 288 -61 302 8 8 7 14 -4 23 -25 18 -77 345 -93 577 -12 179 -7 784 7
868 18 104 28 325 14 316 -7 -4 -12 -3 -12 3 0 5 6 12 13 14 9 4 9 7 0 14 -9
6 -8 34 3 118 8 61 19 142 24 181 5 40 23 128 40 195 18 68 36 142 41 164 20
82 71 237 76 231 3 -2 -2 -26 -11 -52 -20 -58 -20 -61 -1 -61 8 0 15 6 15 13
0 8 9 30 20 50 15 26 19 45 14 71 l-7 36 -14 -24 -14 -24 7 25 c20 77 82 225
95 225 8 0 19 4 25 8 16 9 23 54 11 66 -6 6 2 37 23 88 45 107 146 309 170
340 11 14 20 30 20 36 0 5 27 50 60 98 39 58 55 89 45 89 -8 0 -15 7 -15 15 0
22 -21 18 -27 -5 -3 -11 -9 -18 -13 -15 -4 3 -10 -5 -13 -16 -3 -12 -10 -18
-16 -14 -6 3 -11 4 -11 0 0 -3 9 -9 20 -13 19 -7 18 -9 -8 -58 -15 -28 -48
-82 -73 -120 -61 -91 -184 -323 -235 -441 -87 -204 -175 -456 -218 -628 -14
-56 -15 -57 -11 -15 2 25 4 106 4 180 0 74 5 187 10 250 5 63 12 176 16 250 7
173 14 306 21 398 5 59 8 70 17 58 10 -13 13 -5 15 41 2 42 0 54 -8 43 -14
-21 -13 57 4 335 8 127 17 325 21 440 3 116 8 229 11 252 l5 42 76 3 77 3 13
50 c7 28 12 59 10 69 -2 19 -3 19 -19 2 -14 -14 -18 -14 -18 -3 0 8 14 20 31
27 17 7 37 23 45 36 17 25 12 63 -32 258 -14 60 -23 110 -21 113 3 2 8 -9 12
-24 6 -24 8 -26 18 -12 7 8 20 18 30 22 9 3 17 14 17 23 0 10 2 15 4 13 2 -2
7 -137 11 -299z m-399 169 c-18 -45 -22 -104 -6 -79 7 11 10 8 9 -15 0 -35
-16 -79 -20 -55 -1 8 -5 -19 -9 -60 -7 -71 -3 -102 8 -70 3 8 11 -5 18 -30 10
-34 11 -67 4 -135 -5 -49 -10 -96 -10 -102 0 -7 -7 -13 -15 -13 -8 0 -15 -4
-15 -10 0 -5 7 -7 15 -4 18 7 21 -30 5 -71 -7 -18 -7 -24 0 -20 11 7 7 -194
-6 -342 -6 -70 -30 -123 -49 -105 -4 4 -3 -3 4 -15 15 -29 14 -30 -8 -36 -12
-3 -19 -13 -18 -25 1 -18 3 -19 23 -5 14 9 21 22 20 38 -2 13 1 29 5 37 6 9 9
5 9 -14 0 -14 6 -28 13 -31 9 -3 9 -7 0 -19 -7 -8 -13 -28 -15 -45 -1 -18 -5
-30 -9 -27 -4 2 -24 -7 -45 -21 -20 -14 -38 -24 -39 -23 -6 10 17 377 25 391
6 10 13 106 16 215 2 108 6 211 9 227 2 17 6 57 10 90 3 33 11 85 17 115 6 30
10 69 9 85 -1 48 53 287 57 247 2 -19 -4 -52 -12 -73z m-177 12 c-11 -33 -27
-62 -35 -65 -12 -5 -12 -2 0 22 7 15 21 44 29 65 25 58 28 44 6 -22z m2795
-12 c6 -30 8 -31 42 -26 l37 6 -21 -22 -22 -23 22 -22 22 -22 -27 0 c-24 0
-27 -4 -27 -32 l0 -33 -20 25 -19 25 -26 -25 -27 -25 7 34 c7 33 7 34 -24 29
-37 -5 -40 4 -6 22 31 16 31 24 3 44 -22 16 -22 16 14 16 32 0 37 3 43 30 9
39 21 38 29 -1z m-911 -73 c12 4 29 9 37 12 9 4 6 -5 -9 -23 l-23 -30 28 -22
27 -21 -29 -4 c-26 -3 -29 -6 -26 -33 l4 -30 -25 23 -25 23 -20 -28 -21 -28
-1 34 c0 32 -1 33 -32 27 l-32 -6 24 25 23 25 -24 26 -24 26 35 -4 c33 -3 35
-1 44 36 l9 39 19 -37 c16 -31 23 -36 41 -30z m-2829 28 c6 -24 11 -26 42 -21
l35 6 -22 -27 -21 -27 21 -14 c29 -19 26 -33 -4 -25 -23 6 -25 3 -25 -27 -1
-30 -2 -32 -14 -16 -16 21 -25 21 -48 0 -17 -15 -18 -14 -18 15 0 28 -3 32
-26 32 l-26 0 23 19 c23 19 24 19 5 40 -19 21 -19 21 12 21 25 0 33 5 38 25 8
32 20 32 28 -1z m401 -23 c3 -5 1 -12 -5 -16 -5 -3 -10 1 -10 9 0 18 6 21 15
7z m-867 -85 l36 7 -22 -28 -22 -28 22 -24 21 -23 -26 0 c-24 0 -27 -4 -27
-32 0 -32 0 -32 -16 -10 -19 28 -31 28 -55 0 l-18 -23 -1 33 c0 29 -3 32 -32
32 l-31 0 21 23 c27 28 27 35 5 60 -18 19 -17 20 19 13 35 -6 37 -5 49 31 l13
38 14 -38 c14 -36 16 -37 50 -31z m1739 -18 c-3 -8 -6 -5 -6 6 -1 11 2 17 5
13 3 -3 4 -12 1 -19z m-470 -120 c-3 -8 -6 -5 -6 6 -1 11 2 17 5 13 3 -3 4
-12 1 -19z m2478 -49 c7 -29 9 -31 46 -27 l38 3 -19 -20 c-25 -27 -25 -33 3
-56 l22 -18 -34 -1 c-32 0 -33 -1 -27 -32 l6 -32 -25 24 -25 23 -23 -21 -24
-22 5 30 c4 28 2 30 -29 30 l-34 1 28 21 28 20 -23 25 -23 25 35 -4 c32 -3 36
0 45 30 12 40 21 41 30 1z m-2374 -108 c0 -10 2 -11 6 -3 2 6 11 12 19 12 10
0 8 -7 -8 -25 -26 -30 -35 -31 -40 -7 -2 9 -8 -4 -12 -31 -4 -26 -14 -59 -22
-75 -18 -34 -20 -156 -2 -150 16 6 26 47 30 118 2 42 6 56 15 53 18 -7 17
-103 -3 -169 -17 -59 -25 -65 -43 -31 -11 21 -11 21 -4 -3 3 -14 6 -68 5 -120
-1 -86 1 -93 13 -70 8 14 14 33 15 43 0 18 20 24 20 6 0 -7 12 -10 33 -7 17 3
38 3 45 1 21 -8 13 -23 -14 -23 -62 0 -99 -48 -109 -144 l-8 -69 29 5 c25 3
29 1 30 -22 0 -14 3 -32 7 -40 4 -10 -3 -22 -19 -33 -30 -23 -44 -15 -21 11
22 24 21 39 -2 52 -27 14 -56 13 -70 -4 -10 -12 -9 -20 5 -41 16 -24 16 -28 1
-42 -24 -24 -47 -9 -47 32 0 24 -4 35 -15 35 -29 0 -14 17 25 29 49 14 60 37
60 120 0 61 -13 87 -45 93 -13 2 -25 19 -37 53 -22 62 -22 58 5 52 13 -4 30 1
42 11 17 15 20 27 17 91 -3 50 -7 70 -13 60 -8 -12 -10 -12 -19 1 -8 13 -10
12 -10 -2 0 -10 -5 -18 -11 -18 -8 0 -9 13 -5 41 7 41 35 106 36 81 0 -9 5
-10 19 -3 19 11 41 59 41 92 0 10 4 29 9 43 8 18 15 23 30 19 12 -3 21 -13 22
-22z m-896 -232 c7 -32 13 -33 72 -13 13 5 11 -1 -9 -22 l-28 -28 28 -23 27
-22 -32 -1 c-31 0 -32 -1 -27 -32 l5 -33 -19 23 c-11 12 -23 22 -27 22 -4 0
-15 -10 -26 -22 l-19 -23 6 33 c6 31 5 32 -27 32 l-34 0 25 20 25 20 -22 19
c-32 27 -29 33 12 25 33 -6 35 -5 41 25 8 40 21 40 29 0z m3708 -23 l41 6 -30
-26 -29 -26 25 -20 25 -20 -27 0 c-25 0 -28 -4 -28 -31 l0 -31 -20 23 c-19 23
-21 23 -34 7 -18 -24 -23 -23 -22 5 1 17 -5 23 -27 25 l-28 3 23 20 23 19 -25
20 -25 20 38 0 c32 0 39 4 48 28 l11 27 10 -28 c10 -27 13 -28 51 -21z m-2736
-50 c3 -2 2 -14 -2 -25 -7 -23 -44 -29 -46 -8 0 6 -2 20 -4 30 -3 13 2 16 22
12 14 -2 28 -6 30 -9z m-1380 -83 l36 6 -24 -25 -24 -26 22 -18 23 -18 -25 -6
c-20 -5 -25 -13 -25 -37 l0 -31 -19 23 -19 24 -26 -24 -26 -24 0 31 c0 28 -3
32 -27 32 l-26 0 23 25 c23 24 23 25 5 45 -18 20 -18 20 14 20 27 0 34 5 43
32 l12 33 13 -34 c13 -31 16 -33 50 -28z m2943 30 c-1 -16 -7 -57 -15 -93 -14
-64 -14 -64 -11 -15 2 28 1 42 -1 32 -3 -10 -16 -22 -29 -27 -13 -6 -27 -16
-30 -23 -3 -8 -10 -14 -17 -14 -7 0 -24 -3 -39 -6 -34 -7 -35 0 -5 41 30 40
26 92 -7 93 -19 1 -18 2 4 8 31 10 109 22 94 15 -7 -3 -10 -13 -7 -23 2 -10
-3 -25 -11 -34 -9 -8 -16 -20 -16 -26 0 -6 -5 -11 -12 -11 -9 0 -9 -3 -1 -11
14 -14 53 -2 53 15 0 7 9 21 20 31 22 20 27 61 8 68 -8 3 -6 6 5 6 12 1 17 -7
17 -26z m625 -14 c7 -32 19 -34 69 -14 17 7 16 4 -5 -24 l-24 -33 24 -19 23
-19 -26 0 c-23 0 -26 -4 -26 -32 l0 -31 -25 23 -24 23 -20 -24 -20 -24 -1 34
c0 32 -1 33 -32 27 l-32 -6 27 28 27 28 -21 20 -20 21 32 -5 c34 -5 49 8 49
46 0 32 17 19 25 -19z m-818 -5 c-3 -3 -12 -4 -19 -1 -8 3 -5 6 6 6 11 1 17
-2 13 -5z m-50 -10 c-3 -3 -12 -4 -19 -1 -8 3 -5 6 6 6 11 1 17 -2 13 -5z
m210 -176 c-3 -7 -5 -2 -5 12 0 14 2 19 5 13 2 -7 2 -19 0 -25z m-2160 -40
c-3 -8 -6 -5 -6 6 -1 11 2 17 5 13 3 -3 4 -12 1 -19z m616 -8 c5 -4 4 -11 -2
-14 -6 -4 -11 -19 -11 -34 -1 -25 -2 -26 -14 -9 -8 10 -18 17 -22 16 -21 -4
-26 2 -14 16 19 23 3 31 -20 10 -24 -22 -27 -9 -3 17 13 14 25 17 47 12 17 -3
35 -10 39 -14z m-173 -18 c21 -20 22 -22 5 -28 -25 -10 -67 8 -76 32 -7 19 -4
22 20 20 15 -1 38 -12 51 -24z m-90 -5 c0 -14 -6 -24 -15 -24 -18 0 -18 2 -3
27 16 25 18 25 18 -3z m1787 -29 c-3 -8 -6 -5 -6 6 -1 11 2 17 5 13 3 -3 4
-12 1 -19z m1125 0 c2 -19 9 -23 40 -22 l37 1 -20 -25 -19 -25 27 -19 28 -18
-32 0 c-24 0 -33 -5 -33 -16 0 -13 -3 -14 -14 -5 -12 10 -17 8 -27 -11 l-13
-23 -6 25 c-5 19 -13 25 -33 25 -32 -1 -33 2 -10 27 15 17 15 19 -3 39 -19 21
-19 21 6 18 32 -4 50 7 50 32 0 27 18 24 22 -3z m-1135 -50 c-3 -8 -6 -5 -6 6
-1 11 2 17 5 13 3 -3 4 -12 1 -19z m-10 -60 c-3 -7 -5 -2 -5 12 0 14 2 19 5
13 2 -7 2 -19 0 -25z m-1625 -82 c0 -46 -3 -89 -7 -95 -3 -6 1 -11 9 -11 8 0
18 5 21 10 8 12 55 13 55 1 0 -5 -7 -12 -16 -15 -8 -3 -12 -11 -8 -17 5 -8 10
-6 16 5 12 22 38 20 38 -3 0 -24 -41 -51 -79 -51 -31 0 -49 -26 -31 -44 7 -7
10 -6 10 3 0 9 7 11 23 7 31 -10 50 -14 62 -15 5 -1 2 -8 -7 -17 -12 -13 -20
-14 -37 -5 -28 15 -41 6 -40 -27 1 -48 24 -96 52 -110 28 -14 39 -49 12 -38
-8 3 -21 8 -28 11 -7 3 -26 -8 -42 -25 -16 -16 -23 -30 -17 -30 20 0 14 -82
-9 -109 -25 -30 -35 -21 -20 20 6 18 11 47 11 66 0 30 -2 32 -19 21 -15 -9
-17 -16 -10 -30 6 -11 6 -30 0 -50 -5 -18 -10 -25 -10 -15 -1 9 -5 17 -11 17
-15 0 -12 -16 5 -34 14 -14 14 -21 2 -56 -10 -30 -11 -56 -5 -97 6 -39 5 -60
-2 -67 -8 -8 -9 -5 -4 9 6 16 2 15 -23 -8 -16 -15 -46 -30 -66 -34 -43 -7 -76
-38 -59 -55 8 -8 19 -3 41 20 25 28 60 45 49 25 -3 -5 -13 -27 -23 -50 -19
-45 -23 -47 -74 -37 -24 5 -31 12 -31 30 0 12 5 26 10 29 8 5 7 11 -1 21 -13
15 -17 13 68 39 28 10 60 23 70 31 17 13 17 13 -4 14 -28 0 -29 11 -4 27 14 9
19 28 24 80 3 38 1 73 -5 80 -6 8 -6 19 1 32 6 11 11 31 11 44 0 18 7 27 25
31 14 4 25 11 25 17 0 6 -5 7 -12 3 -6 -4 -8 -3 -5 3 4 6 4 32 1 57 -7 46 -7
46 -27 29 -11 -10 -17 -12 -13 -5 4 6 3 12 -3 12 -6 0 -9 -13 -8 -28 2 -22 6
-28 20 -24 30 8 19 -23 -17 -42 -37 -20 -77 -19 -84 3 -3 10 2 12 21 8 16 -5
29 -2 37 8 10 13 9 15 -9 15 -18 0 -20 2 -9 14 7 8 18 11 23 8 6 -2 5 1 -2 8
-20 22 -66 -1 -75 -38 -10 -36 -28 -43 -28 -11 0 28 18 59 34 59 7 0 23 11 35
24 17 18 22 32 17 50 -3 15 -11 26 -16 26 -6 0 -8 11 -4 28 7 27 7 27 -14 9
-29 -26 -43 -14 -29 23 9 22 16 28 32 24 11 -3 29 2 40 10 19 14 18 15 -23 31
-29 12 -42 23 -42 36 0 25 16 24 37 -1 10 -11 23 -20 30 -20 18 0 43 53 43 90
0 16 5 30 10 30 9 0 14 -42 8 -55 -2 -2 6 -10 16 -18 19 -14 16 -54 -3 -42 -5
3 -12 1 -16 -5 -3 -5 -1 -10 5 -10 7 0 8 -6 2 -17 -12 -23 -5 -43 15 -43 11 0
14 7 9 25 -4 17 -2 27 7 30 9 4 13 30 15 83 1 42 4 99 8 125 10 77 27 41 26
-57z m193 -16 c3 -5 17 -10 31 -10 13 0 24 -4 24 -10 0 -5 -8 -10 -17 -10 -13
0 -14 -3 -5 -12 14 -14 16 -84 3 -93 -6 -3 -6 -18 0 -37 11 -38 3 -68 -17 -68
-17 0 -19 -16 -3 -26 8 -4 7 -9 -2 -15 -11 -7 -11 -9 3 -9 14 0 16 -10 13 -67
-2 -38 -4 -81 -4 -96 -1 -25 -3 -26 -21 -17 -19 10 -20 8 -20 -32 1 -40 2 -42
15 -24 17 23 19 9 5 -28 -7 -18 -6 -26 1 -26 8 0 9 -13 4 -37 -4 -21 -6 -99
-6 -173 1 -74 -3 -148 -8 -165 -5 -16 -10 -25 -10 -18 -1 6 -10 11 -20 10 -25
-2 -15 -27 10 -27 17 0 19 -7 16 -50 -1 -27 1 -50 5 -50 4 0 8 -4 8 -9 0 -5
-9 -7 -20 -4 -13 3 -20 0 -20 -8 0 -11 -2 -11 -10 1 -6 10 -8 2 -4 -27 3 -30
0 -46 -12 -58 -14 -14 -15 -18 -3 -25 13 -9 32 7 24 20 -2 3 4 6 14 6 15 0 17
-9 16 -61 -3 -138 -7 -199 -12 -187 -5 14 -49 16 -57 3 -11 -17 5 -39 35 -50
25 -8 29 -15 28 -43 l-2 -33 -7 35 c-4 19 -8 29 -9 22 0 -6 -12 -22 -26 -34
-30 -26 -31 -45 -7 -92 17 -36 36 -46 45 -23 3 6 6 -40 6 -103 0 -114 0 -115
-28 -143 l-29 -28 22 -24 21 -24 6 27 c6 22 7 20 8 -15 1 -34 -5 -47 -29 -71
-16 -17 -30 -36 -30 -44 0 -10 2 -10 9 1 16 25 22 -23 12 -90 -9 -52 -8 -66 4
-79 11 -13 16 -45 17 -128 1 -87 4 -112 14 -112 10 0 14 -16 14 -57 0 -41 -3
-54 -10 -43 -7 11 -10 -1 -10 -42 0 -59 -7 -88 -20 -88 -13 0 -21 31 -32 120
-11 100 -11 151 2 164 6 6 4 16 -6 27 -12 13 -15 47 -17 169 -1 83 -5 154 -9
156 -5 3 -5 11 -1 17 4 6 6 38 5 69 -2 36 2 58 8 58 7 0 8 6 0 19 -5 11 -10
47 -10 81 0 34 5 70 10 81 6 10 7 19 3 19 -10 0 -15 341 -5 357 4 7 3 45 -2
85 -9 61 -15 76 -41 100 -17 16 -42 28 -57 28 -16 0 -28 5 -28 12 0 9 -3 9
-11 1 -9 -9 -9 -20 1 -42 8 -21 9 -35 3 -44 -23 -28 -22 -47 4 -77 28 -34 34
-77 12 -91 -23 -14 -30 -10 -19 10 17 32 12 44 -14 37 -18 -4 -26 -1 -29 11
-3 10 -5 -11 -6 -47 -1 -59 1 -66 22 -75 25 -11 32 -65 8 -73 -10 -3 -12 0 -8
12 4 10 1 26 -7 37 -12 18 -14 17 -19 -22 -5 -39 9 -106 21 -94 9 9 42 -27 42
-47 0 -25 -12 -23 -41 10 l-24 27 -3 -32 c-2 -18 -8 -33 -14 -33 -6 0 -8 9 -5
20 3 13 1 18 -6 13 -6 -4 -8 0 -4 10 13 34 -15 16 -29 -19 -8 -20 -24 -38 -35
-41 -10 -3 -19 -9 -19 -13 0 -11 -60 -31 -71 -24 -14 8 -10 24 6 24 31 0 64
24 85 64 13 22 31 48 42 57 15 12 19 25 16 60 l-4 44 -14 -32 c-16 -36 -18
-37 -40 -23 -10 7 -12 12 -4 18 6 4 14 19 18 35 4 18 13 27 26 27 18 0 20 7
20 73 0 48 5 80 14 93 14 18 15 18 25 -6 11 -28 12 -26 15 47 3 45 0 52 -18
57 -39 10 -65 6 -71 -11 -9 -28 -83 -109 -91 -100 -4 4 6 26 23 50 17 23 40
62 52 86 l22 43 -21 24 c-13 12 -32 24 -43 26 -11 2 -22 9 -25 15 -6 20 27 27
46 10 9 -8 29 -15 44 -14 26 2 28 5 28 48 0 32 5 49 15 53 12 4 15 -7 15 -67
0 -80 7 -117 22 -117 6 0 8 14 4 35 -6 32 -4 36 19 45 36 14 51 3 29 -21 -23
-26 -12 -46 27 -47 18 0 45 -10 61 -22 15 -11 28 -17 28 -13 1 4 3 55 5 112 3
57 7 106 10 109 2 2 0 13 -6 24 -8 14 -14 16 -23 9 -7 -6 -27 -9 -44 -7 -27 4
-34 0 -51 -30 -35 -59 -55 -41 -25 22 14 28 15 42 5 77 -14 57 -16 88 -4 115
9 23 12 20 68 -55 32 -43 60 -80 62 -82 11 -14 15 25 20 173 4 122 2 166 -6
166 -6 0 -14 -7 -17 -15 -4 -8 -18 -15 -34 -15 -31 0 -65 -30 -42 -38 19 -6
81 -75 76 -84 -8 -12 -42 9 -60 37 -21 32 -29 32 -32 -1 -1 -14 -5 -30 -8 -35
-8 -14 -24 0 -24 22 0 10 -4 19 -10 19 -12 0 -1 31 16 45 7 6 14 19 16 30 2
14 14 21 41 26 20 3 40 8 42 11 11 11 -9 40 -33 49 -18 7 -22 13 -15 20 13 13
49 7 46 -7 0 -5 10 -17 23 -27 23 -17 24 -17 28 5 3 13 7 92 9 175 2 84 7 156
10 160 4 3 7 37 7 75 0 62 11 87 23 56 5 -12 11 25 8 45 -2 11 17 9 24 -3z
m-1220 -51 c7 -30 8 -31 48 -25 l41 7 -24 -26 -25 -27 23 -18 23 -19 -28 -3
c-24 -2 -28 -8 -28 -32 l1 -28 -19 23 -19 24 -18 -23 -19 -23 -3 28 c-2 24 -7
28 -30 26 -34 -2 -35 3 -6 27 l23 18 -20 22 -20 23 32 -5 c33 -5 43 5 43 43 0
30 18 22 25 -12z m1135 11 c0 -13 -7 -20 -20 -20 -25 0 -25 9 -2 26 22 17 22
17 22 -6z m787 -72 c-3 -8 -6 -5 -6 6 -1 11 2 17 5 13 3 -3 4 -12 1 -19z m-12
-28 c3 -5 1 -10 -4 -10 -6 0 -11 5 -11 10 0 6 2 10 4 10 3 0 8 -4 11 -10z
m-780 -39 c3 -5 1 -12 -4 -15 -5 -3 -11 1 -15 9 -6 16 9 21 19 6z m2355 -127
l40 -54 -1 -142 c-1 -153 0 -160 60 -289 16 -36 46 -121 65 -188 34 -115 54
-210 140 -656 43 -222 137 -551 201 -705 92 -224 140 -403 177 -660 24 -171
11 -694 -18 -741 -3 -6 -27 20 -52 58 l-47 68 0 280 c-1 216 -5 304 -18 384
-38 227 -77 368 -157 571 -85 214 -168 502 -199 685 -11 66 -30 178 -41 249
-34 201 -92 418 -153 572 -73 186 -81 232 -74 407 8 165 16 229 29 221 4 -3
26 -30 48 -60z m255 -14 c6 -29 9 -30 43 -24 l37 7 -25 -28 -25 -27 23 -18 23
-19 -28 -3 c-23 -2 -28 -8 -28 -30 1 -33 -6 -35 -23 -7 l-13 21 -25 -23 -24
-23 6 32 c6 31 5 32 -27 32 l-34 1 28 21 28 20 -23 25 -23 25 37 -7 c34 -7 36
-5 43 24 8 39 22 40 30 1z m-2944 -187 c-3 -68 -11 -67 -11 2 0 32 3 55 7 51
4 -3 6 -28 4 -53z m89 -80 c-1 -36 -2 -37 -15 -19 -16 21 -19 39 -8 49 15 16
23 5 23 -30z m-40 7 c0 -5 -5 -10 -12 -10 -6 0 5 -16 25 -35 35 -34 44 -54 31
-68 -11 -11 -34 5 -34 24 0 10 -10 25 -21 33 -19 13 -24 13 -36 0 -21 -20 -23
-18 -23 20 0 28 4 35 23 39 39 8 47 7 47 -3z m-1186 -97 c1 -2 17 1 34 6 36
11 43 -2 12 -21 -26 -17 -25 -33 2 -52 l22 -16 -27 0 c-24 0 -27 -4 -27 -32
l-1 -33 -22 27 -23 28 -22 -22 -22 -22 0 27 c0 23 -4 27 -27 27 l-26 0 21 23
22 24 -20 26 -21 26 36 -6 c33 -5 36 -3 47 28 l12 34 14 -35 c8 -19 15 -36 16
-37z m516 37 c-6 -11 -13 -20 -16 -20 -2 0 0 9 6 20 6 11 13 20 16 20 2 0 0
-9 -6 -20z m69 -77 c0 -5 -4 -17 -8 -28 -5 -11 -4 -31 1 -44 7 -19 4 -28 -12
-43 -21 -20 -27 -72 -10 -83 6 -3 10 -26 10 -51 0 -32 -4 -44 -15 -44 -10 0
-15 10 -15 32 0 17 -7 40 -16 50 -16 16 -16 21 0 61 9 24 14 51 10 61 -3 9 -1
23 6 31 7 8 9 22 6 31 -3 9 -4 20 0 25 6 11 44 12 43 2z m-142 -90 c-3 -10 -5
-2 -5 17 0 19 2 27 5 18 2 -10 2 -26 0 -35z m843 -65 c0 -51 -9 -88 -21 -88
-10 0 -12 53 -3 99 9 45 24 38 24 -11z m-728 -202 c3 -13 1 -31 -4 -40 -11
-19 -32 -22 -25 -3 2 6 -3 17 -12 23 -13 10 -13 14 -2 28 19 23 38 20 43 -8z
m4 -107 c4 -7 -1 -16 -10 -21 -20 -11 -21 -28 -1 -28 10 0 15 -10 15 -27 0
-21 -7 -31 -27 -41 -34 -15 -54 1 -24 20 25 15 27 28 6 28 -19 0 -19 30 1 58
17 24 29 28 40 11z m-12 -334 c15 -23 15 -27 -4 -57 -11 -18 -20 -45 -20 -60
0 -18 -5 -28 -15 -28 -20 0 -20 79 0 106 8 10 15 29 15 42 0 28 4 28 24 -3z
m-485 -365 c79 -151 163 -309 187 -351 66 -115 85 -177 90 -299 3 -81 1 -96
-6 -67 -15 56 -36 93 -111 192 -90 120 -153 228 -293 507 l-118 233 12 51 c6
27 20 65 31 84 l21 33 22 -54 c12 -30 87 -178 165 -329z m471 181 c0 -11 -5
-23 -11 -27 -15 -9 -33 12 -26 30 9 23 37 20 37 -3z m828 -21 c12 -12 22 -28
22 -37 0 -13 -7 -10 -32 13 -18 16 -37 32 -42 36 -6 5 -1 8 10 8 11 0 30 -9
42 -20z m-90 -43 c3 -39 6 -47 23 -47 17 0 20 -6 18 -29 -3 -20 6 -38 29 -66
39 -43 34 -58 -8 -27 -37 28 -52 28 -48 0 2 -15 17 -30 41 -42 21 -10 36 -20
33 -23 -11 -11 -42 -9 -58 4 -14 13 -17 12 -22 -5 -5 -13 -19 -22 -47 -26 -32
-5 -43 -13 -55 -39 -18 -35 -81 -93 -91 -83 -9 9 15 56 29 56 15 0 61 74 68
109 5 23 51 47 64 34 9 -10 -6 -32 -19 -27 -16 7 -29 -12 -15 -21 22 -14 50
26 50 71 0 23 5 44 11 46 17 6 -2 38 -22 38 -22 0 -37 -29 -21 -39 14 -9 3
-53 -12 -48 -6 2 -12 15 -14 30 -2 14 -10 31 -18 37 -21 18 -18 26 15 40 34
14 43 32 35 65 -3 13 -3 29 1 35 14 23 30 2 33 -43z m65 -358 c17 -8 23 -17
20 -30 -6 -23 -29 -25 -37 -4 -3 8 -12 15 -21 15 -8 0 -15 -7 -15 -15 0 -8 5
-15 11 -15 6 0 9 -9 6 -19 -6 -23 30 -36 73 -26 26 6 28 4 32 -30 3 -29 1 -34
-11 -29 -9 4 -34 13 -56 21 -22 8 -45 18 -50 23 -6 5 -17 5 -25 0 -21 -14 -30
-12 -30 4 0 8 9 17 20 21 16 5 17 9 8 25 -11 17 -12 17 -28 -2 -9 -12 -17 -41
-19 -66 -1 -25 -6 -53 -12 -63 -16 -31 -10 -61 17 -86 22 -20 25 -30 21 -58
-4 -23 -1 -38 9 -46 12 -9 14 -6 14 24 0 41 8 67 21 67 5 0 10 -33 10 -72 2
-106 9 -132 39 -136 31 -5 51 22 43 59 -6 30 5 37 25 17 19 -19 14 -54 -12
-85 -23 -27 -24 -33 -14 -74 6 -28 21 -54 42 -72 17 -16 27 -27 21 -26 -5 1
-28 1 -51 0 -35 -1 -40 -4 -40 -22 1 -34 -20 -33 -34 2 -12 28 -15 30 -21 13
-4 -10 -8 -33 -8 -51 -1 -17 -6 -35 -12 -38 -6 -4 -8 -13 -5 -21 3 -7 1 -16
-4 -19 -6 -4 -10 -1 -10 4 0 6 -8 11 -17 11 -15 0 -14 -2 3 -15 27 -20 39 -19
52 8 10 21 11 22 11 1 1 -29 21 -84 31 -84 16 0 20 63 5 80 -13 15 -12 19 14
44 29 27 30 28 58 11 53 -31 70 -113 34 -163 -10 -15 -21 -40 -25 -57 -4 -16
-16 -38 -26 -47 -15 -14 -17 -24 -10 -48 6 -21 5 -28 -2 -24 -17 11 -2 -96 22
-150 18 -42 29 -52 55 -46 5 1 1 -8 -9 -19 -11 -12 -27 -21 -38 -21 -20 0 -24
-25 -5 -37 6 -4 13 -21 14 -38 2 -16 5 -59 9 -95 4 -46 2 -75 -8 -100 l-15
-35 -37 73 c-33 65 -34 72 -15 62 26 -14 35 -6 42 41 4 25 0 44 -10 59 -20 28
-32 147 -14 135 10 -6 11 -3 2 14 -7 11 -14 21 -16 21 -3 0 -17 -18 -31 -40
-24 -37 -26 -43 -15 -84 20 -82 12 -96 -19 -32 -25 52 -27 61 -15 80 7 11 16
39 20 61 11 65 15 75 35 75 16 0 18 7 16 63 -2 34 -11 77 -20 94 -9 18 -16 41
-16 53 0 12 -5 41 -11 66 -9 36 -15 45 -30 41 -10 -3 -27 4 -39 15 l-22 20
-14 -21 c-8 -11 -21 -21 -28 -21 -7 0 -18 -10 -24 -22 -12 -25 -10 -31 -16 80
-2 32 8 43 17 20 3 -8 6 -7 6 4 1 9 -8 20 -19 23 -26 8 -26 35 -1 35 13 0 21
8 23 22 2 16 12 24 36 29 63 13 85 53 62 113 -12 31 -45 35 -60 6 -9 -17 -14
-18 -31 -7 -17 10 -22 9 -34 -7 -14 -18 -15 -18 -21 -1 -9 23 20 45 59 45 35
0 67 16 67 34 0 8 7 19 15 26 24 20 18 36 -20 59 -38 22 -44 41 -20 61 21 18
19 34 -7 45 -19 8 -24 19 -26 64 -2 30 2 59 7 64 21 21 11 27 -18 12 -17 -8
-38 -28 -47 -44 -23 -39 -39 -29 -18 11 15 28 15 32 0 40 -27 15 -18 23 25 23
47 0 69 22 69 68 0 55 78 86 143 56z m-160 -29 c-3 -11 -7 -20 -9 -20 -2 0 -4
9 -4 20 0 11 4 20 9 20 5 0 7 -9 4 -20z m232 10 c3 -5 4 -14 0 -20 -8 -13 -35
-1 -35 16 0 16 26 19 35 4z m-58 -56 c-3 -3 -12 -4 -19 -1 -8 3 -5 6 6 6 11 1
17 -2 13 -5z m41 -151 c-14 -18 -27 -7 -21 16 4 16 8 17 18 8 9 -8 10 -16 3
-24z m2592 -18 c31 -16 68 -60 95 -115 17 -34 17 -35 -1 -19 -61 53 -148 64
-204 27 -19 -13 -75 -84 -127 -158 -51 -74 -130 -179 -175 -234 -168 -200
-318 -389 -323 -407 -19 -58 -41 21 -31 108 10 87 41 134 220 337 53 60 138
163 189 230 50 66 109 139 130 162 68 76 160 104 227 69z m-2580 -54 c0 -21
-10 -38 -35 -60 -41 -36 -45 -37 -45 -15 0 9 14 28 30 42 17 15 30 34 30 44 0
10 5 18 10 18 6 0 10 -13 10 -29z m-1135 -109 c19 -29 27 -59 34 -124 4 -48 7
-103 4 -123 -10 -91 -101 -326 -166 -427 -53 -83 -77 -135 -86 -181 l-8 -42
-18 60 c-11 37 -18 91 -18 140 1 78 2 83 61 198 71 137 126 297 150 438 9 54
18 99 19 99 2 0 14 -17 28 -38z m3780 12 c35 -23 65 -76 65 -115 0 -59 -36
-188 -104 -370 -82 -221 -109 -324 -110 -416 -1 -71 -1 -72 -18 -50 -29 37
-60 128 -65 193 -10 109 15 204 122 479 56 143 75 207 75 258 0 42 2 43 35 21z
m-3908 -86 c27 5 28 4 11 -15 -10 -11 -18 -23 -18 -28 0 -5 8 -17 18 -28 17
-19 16 -20 -11 -13 -25 6 -29 3 -38 -24 -13 -36 -29 -39 -29 -5 0 20 -5 25
-25 25 -27 0 -32 9 -13 28 10 10 10 17 0 32 -17 28 -15 31 12 24 21 -5 25 -1
32 28 l7 33 13 -31 c11 -27 17 -31 41 -26z m1410 -50 c-3 -8 -6 -5 -6 6 -1 11
2 17 5 13 3 -3 4 -12 1 -19z m-397 -114 c0 -8 -9 -14 -20 -14 -19 0 -28 28
-13 43 9 9 33 -12 33 -29z m408 -60 c-1 -19 -6 -38 -12 -41 -5 -3 -6 -1 -2 5
4 7 2 12 -3 12 -6 0 -11 11 -11 24 0 20 7 29 28 35 1 1 2 -15 0 -35z m-38 11
c0 -8 -4 -15 -9 -15 -13 0 -22 16 -14 24 11 11 23 6 23 -9z m37 -109 c3 -120
16 -290 23 -321 5 -22 9 -76 9 -120 -1 -74 -2 -77 -10 -36 -5 25 -12 47 -16
50 -5 3 -8 42 -8 86 0 44 -5 102 -12 130 -9 38 -9 53 0 64 8 10 8 13 1 8 -13
-8 -26 80 -18 122 6 26 30 40 31 17z m2066 -166 c1 0 17 4 36 10 31 9 32 8 19
-8 -29 -33 -29 -41 -1 -56 l28 -15 -27 -1 c-25 0 -28 -4 -28 -32 l0 -33 -20
25 c-10 14 -20 23 -23 20 -2 -3 -11 -16 -20 -30 l-17 -24 0 32 c0 28 -3 32
-27 32 -25 0 -26 0 -8 20 17 19 17 21 -1 41 -18 20 -18 20 11 17 25 -3 30 1
39 31 l10 35 13 -32 c7 -18 14 -32 16 -32z m-1847 -46 c-6 -16 -36 -19 -36 -3
0 6 5 20 11 31 10 19 12 20 21 4 5 -9 7 -24 4 -32z m-1279 -91 c-2 -16 -4 -5
-4 22 0 28 2 40 4 28 2 -13 2 -35 0 -50z m2912 -10 c106 -58 293 -189 348
-243 80 -78 104 -152 88 -275 l-7 -57 -23 48 c-45 96 -253 267 -465 384 -52
29 -97 54 -99 56 -7 6 75 121 88 123 2 1 34 -15 70 -36z m-1931 -21 c-2 -20
-10 -28 -35 -33 -40 -8 -60 3 -38 21 8 7 13 20 10 29 -4 14 1 16 31 13 31 -4
35 -7 32 -30z m-971 -119 c-2 -16 -4 -3 -4 27 0 30 2 43 4 28 2 -16 2 -40 0
-55z m-362 2 c31 -85 168 -381 273 -591 124 -249 146 -300 183 -442 38 -146
38 -173 0 -107 -15 28 -53 91 -83 140 -84 137 -279 515 -365 708 -84 189 -92
230 -57 317 19 47 24 45 49 -25z m3830 -16 c43 -44 148 -111 272 -175 98 -50
112 -61 146 -112 63 -96 63 -91 14 -80 -139 31 -420 178 -461 241 -20 31 -27
157 -8 157 4 0 21 -14 37 -31z m-2406 -22 c-1 -12 2 -38 6 -57 5 -26 4 -31 -4
-20 -18 26 -14 -97 5 -125 27 -41 39 -37 35 11 -2 28 -7 42 -14 37 -6 -3 -7
-1 -3 6 20 31 40 -50 27 -111 -5 -24 -2 -42 12 -65 23 -39 19 -84 -8 -98 -17
-8 -19 -16 -14 -48 6 -38 19 -62 19 -36 0 11 2 11 9 1 7 -11 11 -11 24 2 14
15 16 14 21 -1 2 -10 18 -63 34 -118 17 -55 33 -113 37 -130 l7 -30 -27 25
c-52 48 -156 183 -151 196 3 8 0 13 -7 11 -8 -1 -11 9 -9 31 4 37 -36 131 -55
132 -7 0 -13 13 -13 29 0 15 -9 40 -20 54 -29 36 -25 55 5 27 21 -20 30 -22
53 -14 15 5 28 16 30 24 2 12 -7 14 -43 12 -38 -3 -45 -1 -45 14 0 9 11 31 23
48 19 24 25 49 31 113 3 45 9 89 12 98 8 21 24 9 23 -18z m8 -149 c-2 -13 -4
-5 -4 17 -1 22 1 32 4 23 2 -10 2 -28 0 -40z m-803 -109 c-7 -13 -24 7 -24 29
0 10 4 10 16 -2 8 -9 12 -21 8 -27z m3036 -154 l12 -44 -101 -235 c-55 -129
-112 -265 -126 -303 -31 -81 -72 -238 -80 -308 -4 -27 -9 -62 -11 -77 l-5 -26
-45 15 c-25 8 -48 21 -51 28 -7 21 36 219 77 350 49 156 99 289 170 450 49
113 81 193 96 244 7 21 49 -41 64 -94z m-2336 -446 c80 -11 169 -27 371 -70
167 -36 207 -48 200 -60 -4 -5 -2 -9 2 -9 5 0 10 -11 11 -25 2 -30 -14 -33
-23 -5 -8 24 -28 26 -49 5 -8 -8 -29 -15 -47 -15 -27 0 -30 2 -19 15 9 11 9
15 1 15 -7 0 -9 4 -6 10 3 5 -10 3 -29 -5 -20 -8 -49 -15 -66 -15 -18 0 -29
-4 -25 -10 8 -12 29 -9 -170 -25 -93 -7 -179 -16 -190 -18 -30 -7 -158 -26
-175 -26 -16 0 -214 -46 -263 -61 -22 -7 -26 -6 -19 3 7 8 5 16 -4 25 -8 7
-14 10 -14 8 0 -3 -11 -1 -25 4 -17 6 -27 6 -31 -2 -4 -7 -2 -14 4 -16 8 -2 9
-9 2 -22 -8 -15 -6 -17 13 -14 20 4 19 3 -3 -7 -101 -48 -164 -75 -219 -95
-52 -20 -62 -21 -57 -8 20 52 26 152 13 220 l-13 71 75 36 c132 63 203 82 381
101 70 7 305 4 374 -5z m816 -198 c30 -11 48 -20 40 -20 -29 0 -225 37 -201
38 16 1 21 6 18 15 -6 16 28 8 143 -33z m-1711 -57 c22 -36 41 -73 41 -82 0
-10 -13 -71 -29 -137 -36 -149 -47 -220 -66 -409 -8 -82 -17 -151 -19 -154 -3
-2 -35 8 -71 24 l-67 28 7 60 c15 146 38 266 92 493 32 134 61 243 64 243 4 0
25 -30 48 -66z m1669 0 c119 -16 142 -21 142 -34 0 -18 -64 -61 -113 -75 -65
-19 -74 -25 -85 -54 -8 -21 -10 -22 -24 -7 -9 9 -28 15 -42 14 -24 -2 -26 -6
-26 -46 0 -32 3 -41 13 -35 29 18 58 -5 49 -40 -3 -14 -1 -18 9 -15 8 3 15 21
17 42 3 28 9 39 27 46 13 5 26 13 29 19 6 8 119 49 186 65 14 4 79 11 145 16
115 9 124 8 213 -17 62 -18 87 -29 76 -34 -17 -5 -17 -6 1 -16 23 -12 48 -6
39 8 -6 11 27 4 91 -17 22 -8 48 -14 57 -14 10 0 44 -9 75 -19 93 -30 237 -74
253 -76 18 -3 176 -72 249 -110 50 -25 51 -26 51 -70 0 -25 -4 -45 -9 -45 -4
0 -6 -12 -3 -26 3 -19 7 -22 13 -12 5 7 9 9 9 3 1 -36 32 -226 45 -274 21 -80
20 -105 -3 -68 -9 15 -21 27 -26 27 -6 0 -3 -7 5 -16 12 -12 14 -25 9 -55 -4
-22 -5 -60 -2 -84 4 -38 8 -44 31 -48 24 -4 23 -4 -5 -6 -32 -1 -49 11 -56 39
-2 8 -8 20 -15 27 -6 7 -13 18 -15 24 -5 15 -76 23 -102 11 -11 -6 -41 -13
-65 -16 -40 -4 -60 3 -180 61 -75 36 -161 77 -191 90 -30 13 -45 22 -32 20 16
-4 22 -1 22 13 0 21 15 33 44 37 52 8 26 31 -38 34 -27 2 -54 8 -60 14 -15 15
-52 35 -65 35 -6 0 -11 -7 -11 -15 0 -10 10 -15 31 -15 16 0 28 -4 25 -8 -6
-10 -219 -24 -240 -16 -8 3 -14 11 -12 17 1 7 1 9 -1 5 -3 -5 -13 -8 -24 -8
-10 0 -18 -5 -16 -12 3 -16 -68 -30 -126 -25 -26 2 -50 0 -53 -4 -8 -13 -87
-11 -210 6 -158 22 -274 50 -366 89 -48 21 -60 20 -56 -1 2 -10 -5 -26 -17
-36 -20 -18 -20 -19 -1 -33 30 -22 14 -17 -60 19 -68 32 -71 32 -259 38 -175
6 -283 21 -258 37 5 4 12 17 15 30 5 17 2 22 -14 22 -15 0 -18 4 -12 23 4 12
12 25 18 29 8 5 7 11 -2 20 -10 10 -14 10 -21 -1 -5 -8 -7 -19 -5 -26 3 -6 -1
-25 -7 -41 -7 -16 -12 -32 -11 -36 6 -25 -71 26 -158 106 -25 23 -61 54 -80
70 -28 23 -30 25 -6 11 24 -14 28 -15 23 -2 -18 47 308 31 407 -20 17 -9 72
-39 121 -68 50 -28 98 -54 107 -58 10 -3 15 -12 13 -20 -3 -7 5 -22 19 -34
l24 -21 6 29 c3 17 12 29 21 29 14 0 14 3 -2 24 -10 13 -21 22 -24 20 -4 -2
-20 6 -37 19 -17 12 -72 51 -122 86 -49 35 -90 67 -90 70 1 25 15 51 31 56 24
8 25 47 2 66 -13 11 -17 12 -21 1 -2 -7 -14 -22 -25 -33 -17 -15 -19 -22 -9
-28 10 -6 9 -12 -5 -29 -14 -15 -26 -19 -51 -15 -18 3 -32 10 -31 17 4 30 -2
33 -58 29 -32 -2 -64 -6 -71 -8 -7 -3 -11 -1 -8 3 8 13 -11 35 -23 28 -6 -4
-11 -15 -11 -26 0 -10 -7 -21 -16 -24 -22 -9 -36 -7 -30 2 3 5 -7 19 -21 32
-17 15 -28 19 -31 12 -2 -7 -17 -12 -33 -12 -16 0 -29 -4 -29 -9 0 -5 -12 -8
-27 -7 -34 4 -63 -10 -63 -29 0 -17 -6 -21 -47 -30 -29 -6 -33 -4 -33 14 0 25
-25 28 -47 5 -9 -8 -22 -13 -29 -10 -8 3 -14 2 -14 -3 0 -5 -8 -8 -17 -8 -58
0 -63 -2 -59 -28 5 -26 -4 -30 -51 -26 -13 1 -23 -3 -23 -8 0 -6 -18 -16 -40
-22 -21 -7 -41 -19 -44 -28 -10 -29 4 97 15 147 11 47 16 53 88 100 72 47 153
92 166 92 3 0 3 -4 0 -10 -3 -5 1 -10 10 -10 9 0 19 8 22 18 8 34 241 104 488
146 245 43 636 52 873 20z m-1921 -72 c38 5 42 -2 13 -20 -27 -16 -25 -38 3
-47 20 -7 19 -8 -12 -12 -31 -4 -33 -7 -28 -36 l4 -31 -22 26 -22 26 -25 -25
-25 -24 5 30 c4 29 2 31 -29 31 l-34 1 28 20 c32 24 33 35 10 62 -14 16 -15
19 -3 15 55 -19 56 -19 70 19 l14 38 10 -38 c9 -36 12 -38 43 -35z m2640 -24
c-3 -8 -6 -5 -6 6 -1 11 2 17 5 13 3 -3 4 -12 1 -19z m-1644 -245 c-7 -2 -19
-2 -25 0 -7 3 -2 5 12 5 14 0 19 -2 13 -5z m-443 -58 c0 -3 -96 -35 -106 -35
-5 0 12 10 36 23 37 19 70 25 70 12z m2880 -64 c34 -21 47 -35 53 -62 28 -125
82 -345 131 -527 32 -118 55 -217 52 -220 -10 -9 -166 15 -236 37 -95 30 -94
30 -70 84 22 50 26 52 97 38 23 -5 44 -6 47 -4 2 2 -9 55 -25 116 -17 62 -41
153 -54 204 -13 51 -29 141 -35 200 -6 59 -13 120 -16 136 -7 33 -1 33 56 -2z
m-2709 -23 c23 -18 44 -38 46 -44 4 -11 -123 -60 -147 -57 -8 1 -54 -9 -101
-23 -114 -33 -192 -45 -245 -37 -36 5 -44 9 -44 27 0 11 4 26 8 32 9 14 119
55 247 93 171 51 180 51 236 9z m134 -118 c135 -102 199 -120 433 -120 159 0
164 -1 220 -29 192 -97 363 -151 542 -172 136 -15 263 -6 420 30 l125 29 58
-43 c34 -25 54 -46 47 -50 -6 -3 -57 -22 -113 -41 -113 -38 -242 -64 -322 -64
-130 0 -316 49 -585 153 l-105 40 -255 2 c-277 2 -346 12 -457 69 -54 27 -136
97 -183 156 l-30 38 62 25 c35 14 66 26 70 26 4 1 37 -22 73 -49z m852 -161
c2 -16 -3 -19 -20 -14 -17 5 -19 4 -7 -4 8 -6 23 -8 34 -5 13 5 16 3 10 -7 -4
-7 7 -3 24 10 l32 22 65 -22 c55 -18 65 -25 65 -45 0 -13 8 -28 18 -34 14 -8
11 -9 -13 -4 -111 21 -310 98 -300 115 3 4 24 7 48 7 35 0 43 -3 44 -19z
m-1938 -44 c1 -18 6 -20 39 -17 l37 4 -24 -26 c-24 -25 -24 -26 -6 -46 18 -20
18 -20 -8 -20 -24 0 -27 -4 -27 -37 l-1 -38 -21 28 -20 28 -25 -23 -25 -23 2
25 c4 44 1 50 -27 50 l-27 0 24 17 c14 9 26 17 28 19 2 1 -4 14 -13 28 l-17
25 34 -5 c31 -6 34 -4 47 32 12 34 15 36 22 19 4 -11 8 -29 8 -40z m548 -10
c49 -36 138 -93 200 -127 106 -59 130 -78 100 -78 -7 0 -28 -11 -47 -23 -19
-13 -62 -29 -94 -35 -52 -10 -64 -10 -97 5 -35 16 -39 23 -49 73 -16 79 -37
123 -80 165 -28 27 -36 42 -32 61 2 13 6 24 8 24 2 0 43 -29 91 -65z m1438 55
c-3 -5 -12 -7 -20 -3 -21 7 -19 13 6 13 11 0 18 -4 14 -10z m-1616 -40 c79
-40 124 -81 143 -129 5 -14 16 -61 24 -103 16 -86 16 -87 -45 -177 l-30 -45
-18 35 c-10 19 -59 75 -110 124 -90 89 -143 159 -143 191 0 13 3 14 15 4 8 -7
15 -21 15 -31 0 -11 4 -19 9 -19 4 0 31 -18 60 -41 66 -52 67 -34 1 21 -27 23
-50 48 -50 55 0 8 -11 22 -25 33 -22 18 -35 52 -19 52 3 0 26 -16 50 -36 55
-46 58 -29 3 21 -24 22 -38 42 -35 51 4 11 20 5 67 -26 34 -22 67 -40 72 -40
20 0 47 -33 47 -57 0 -27 23 -27 28 -1 4 21 -56 88 -72 82 -14 -5 -106 54
-106 68 0 18 43 6 119 -32z m2582 13 c-11 -5 -11 -7 0 -14 10 -6 5 -9 -16 -9
-16 0 -48 -3 -70 -5 -30 -4 -35 -3 -20 4 15 7 16 10 5 11 -8 2 -1 6 15 10 34
9 107 11 86 3z m-254 -69 c-3 -3 -12 -4 -19 -1 -8 3 -5 6 6 6 11 1 17 -2 13
-5z m466 -78 l159 -77 -39 -34 c-45 -40 -44 -40 -180 26 -90 43 -124 69 -94
69 16 0 83 31 78 37 -3 2 -31 -3 -62 -12 -63 -18 -66 -17 -135 45 l-35 31 75
-4 c69 -4 88 -11 233 -81z m-506 68 c-3 -3 -12 -4 -19 -1 -8 3 -5 6 6 6 11 1
17 -2 13 -5z m-329 -21 c-10 -2 -28 -2 -40 0 -13 2 -5 4 17 4 22 1 32 -1 23
-4z m195 0 c-7 -2 -21 -2 -30 0 -10 3 -4 5 12 5 17 0 24 -2 18 -5z m-2641
-370 c50 -84 95 -153 99 -153 4 0 9 6 12 14 3 8 28 46 56 83 27 38 79 117 114
175 l64 106 44 -44 43 -44 -33 -68 c-18 -37 -62 -112 -98 -166 -63 -96 -221
-316 -228 -316 -13 0 -346 563 -360 608 -5 18 4 39 40 94 l47 71 54 -103 c30
-57 95 -173 146 -257z m3663 277 c3 -5 1 -10 -4 -10 -6 0 -11 5 -11 10 0 6 2
10 4 10 3 0 8 -4 11 -10z m-85 -25 c-12 -15 -30 -12 -30 6 0 5 10 9 21 9 18 0
19 -2 9 -15z m50 -1 c0 -9 -16 -31 -35 -50 -19 -18 -35 -35 -35 -39 0 -11 36
13 67 45 31 32 54 27 35 -6 -5 -9 -7 -26 -4 -36 3 -14 -9 -33 -39 -65 -24 -25
-35 -41 -24 -35 36 19 88 80 82 96 -3 8 -2 18 4 22 38 23 7 -77 -39 -128 -20
-22 -62 -60 -93 -84 -37 -28 -64 -59 -78 -89 -11 -25 -26 -45 -31 -45 -6 0
-31 28 -56 62 -50 68 -51 79 -22 195 12 50 74 125 118 143 44 18 47 6 10 -36
-26 -31 -31 -42 -25 -68 3 -17 9 -46 12 -65 3 -20 8 -28 13 -21 4 6 3 32 -2
57 -9 39 -7 49 9 72 11 14 39 33 62 41 24 8 47 23 52 33 12 21 19 22 19 1z
m187 -66 c-3 -8 -6 -5 -6 6 -1 11 2 17 5 13 3 -3 4 -12 1 -19z m-2857 8 c0 -2
-8 -10 -17 -17 -16 -13 -17 -12 -4 4 13 16 21 21 21 13z m196 -32 c18 -14 18
-14 -6 -3 -31 14 -36 19 -24 19 6 0 19 -7 30 -16z m-363 -97 c-2 -4 1 -6 8 -5
6 2 14 -3 17 -11 3 -9 0 -11 -8 -6 -9 6 -11 4 -6 -4 5 -7 11 -10 14 -6 3 3 50
-38 104 -92 71 -71 98 -104 98 -123 1 -14 7 -36 15 -50 14 -24 14 -24 8 13 -3
20 -2 37 2 37 5 0 29 -13 55 -30 45 -29 47 -31 43 -73 -3 -31 1 -47 11 -57 14
-11 16 -9 16 9 0 11 4 21 8 21 4 0 6 -16 4 -35 -3 -26 0 -35 11 -35 19 0 31
48 17 65 -24 29 15 23 167 -25 219 -70 243 -80 244 -99 0 -11 2 -12 6 -3 3 7
-3 22 -13 33 -18 20 -18 21 9 8 15 -7 27 -18 27 -24 0 -12 -30 -42 -37 -37
-17 12 -80 -89 -67 -110 12 -18 39 -2 45 27 5 26 7 23 8 -16 2 -65 25 -135 63
-188 18 -25 25 -40 16 -33 -12 10 -17 10 -25 0 -33 -42 -21 -78 33 -104 41
-19 53 -12 57 33 2 27 4 29 23 21 28 -13 40 -113 17 -140 -8 -9 -16 -38 -18
-63 -2 -25 -5 -48 -8 -51 -4 -5 -28 19 -81 81 -36 42 -34 12 4 -60 33 -63 32
-80 -5 -63 -29 13 -55 -7 -56 -44 l0 -23 -10 23 c-5 13 -6 29 -2 34 3 6 2 8
-4 5 -5 -3 -21 19 -36 49 -22 44 -26 63 -21 95 6 35 3 44 -19 64 -13 13 -28
21 -32 17 -4 -4 -13 2 -21 12 -8 11 -14 16 -14 10 0 -5 -5 -2 -10 6 -8 12 -10
9 -10 -13 0 -16 4 -26 10 -22 6 4 10 -7 10 -24 0 -17 -5 -31 -10 -31 -7 0 -9
-14 -5 -37 6 -39 -37 96 -50 156 -7 32 -6 34 9 19 9 -9 16 -21 16 -27 0 -6 6
-8 13 -5 16 6 15 30 -1 61 -7 12 -12 28 -12 36 0 14 -27 32 -42 29 -5 -1 -8 5
-8 14 0 8 -4 13 -8 10 -5 -3 -20 18 -33 47 -29 65 -26 62 -42 49 -17 -15 -23
-9 -49 48 -24 50 -34 37 -21 -26 5 -21 6 -57 3 -80 -7 -46 -3 -67 10 -59 9 6
32 -31 44 -72 12 -38 -12 -26 -33 15 -11 21 -27 44 -36 52 -9 7 -21 22 -26 32
-9 18 -8 18 10 8 28 -15 27 3 -1 24 -13 9 -18 15 -13 13 12 -2 15 5 15 34 0
14 -5 19 -14 16 -7 -3 -19 0 -26 6 -9 9 -11 6 -10 -13 1 -14 2 -29 1 -33 -1
-11 -49 46 -107 128 -26 39 -54 76 -61 83 -6 6 -15 21 -18 32 -3 11 -11 20
-17 20 -5 0 -7 -8 -4 -17 5 -15 4 -15 -9 1 -8 11 -15 23 -15 28 0 14 -18 9
-24 -8 -3 -8 -2 -12 3 -9 5 3 12 1 16 -5 8 -13 -21 -13 -46 0 -18 10 -25 3
-20 -23 1 -5 -3 -6 -8 -3 -12 8 -23 -22 -14 -37 3 -7 -3 -3 -15 7 -20 18 -21
20 -5 32 17 11 17 14 0 46 -143 275 -142 273 -171 270 -15 -2 -25 1 -23 5 3 5
-10 7 -29 5 -19 -2 -34 -1 -34 4 0 4 17 28 38 53 21 25 61 83 88 129 l49 82
41 -47 c23 -27 40 -51 37 -56z m2526 92 c24 -9 30 -15 25 -28 -3 -9 -10 -33
-14 -54 -4 -21 -10 -41 -14 -44 -10 -10 -119 18 -148 38 -14 11 -32 19 -39 19
-25 0 6 19 81 48 41 17 75 31 76 31 1 1 15 -4 33 -10z m-1794 -100 c55 -12
102 -24 104 -26 2 -2 -3 -11 -11 -20 -70 -80 -75 -181 -15 -302 20 -40 37 -75
37 -77 0 -2 -42 16 -92 40 -51 24 -124 56 -163 71 -96 38 -186 128 -204 201
-11 45 -10 56 9 108 12 32 19 67 16 80 -6 24 -5 24 107 -14 61 -20 157 -48
212 -61z m-1017 -28 c-3 -31 -13 -41 -92 -98 l-89 -64 25 43 c14 24 44 78 68
121 l42 78 25 -23 c18 -17 23 -31 21 -57z m2452 4 c-46 -18 -64 -17 -25 0 17
8 37 14 45 14 8 0 -1 -7 -20 -14z m771 -27 c30 -12 83 -45 119 -73 36 -29 99
-77 141 -108 69 -51 221 -176 259 -214 13 -13 -137 62 -210 104 -14 9 -7 -1
15 -20 22 -20 80 -57 130 -83 142 -74 201 -119 333 -249 120 -119 143 -155
107 -169 -39 -15 -169 28 -295 96 -67 36 -220 144 -220 155 0 2 10 1 23 -2 12
-4 0 7 -28 23 -27 17 -90 69 -140 116 -88 84 -89 86 -55 81 45 -7 82 12 91 49
7 25 3 34 -29 65 -55 53 -243 203 -248 198 -2 -2 47 -49 108 -104 115 -101
145 -139 135 -167 -14 -35 -127 -9 -247 57 l-55 30 28 -29 c15 -17 27 -38 27
-47 0 -26 -65 -22 -128 8 -30 14 -58 25 -62 25 -5 0 -6 -16 -3 -35 6 -39 -8
-46 -38 -19 -18 16 -18 18 2 43 18 22 20 34 14 86 l-6 59 78 73 c43 39 83 72
89 73 6 0 36 -10 65 -22z m-873 -46 c16 -80 15 -107 -7 -150 -41 -80 -105
-121 -283 -180 -79 -27 -151 -52 -162 -57 -12 -5 -5 11 23 53 72 105 82 166
55 318 l-6 31 94 7 c51 4 125 13 163 20 115 22 109 24 123 -42z m-729 -42 c63
-67 68 -70 111 -70 55 0 107 -29 116 -65 6 -26 -2 -121 -12 -137 -3 -5 -20 3
-37 18 -26 22 -38 25 -71 21 -53 -7 -84 -41 -112 -123 -25 -75 -55 -100 -79
-67 -8 10 -16 15 -19 12 -3 -3 3 -15 14 -27 17 -18 24 -19 49 -11 23 8 31 19
40 56 18 71 48 122 76 129 29 7 71 -2 102 -21 l21 -14 -44 -83 c-57 -107 -117
-164 -213 -202 -95 -37 -126 -31 -193 35 -62 63 -101 144 -106 227 -3 44 -8
62 -18 62 -8 0 -23 9 -34 20 -26 26 -29 140 -4 165 15 15 18 15 35 -1 10 -9
19 -25 21 -37 2 -11 8 -22 13 -24 6 -2 42 29 80 68 39 39 80 81 93 93 21 19
72 43 96 45 5 1 39 -30 75 -69z m1294 -97 c45 -42 47 -46 32 -63 -15 -17 -23
-18 -78 -7 -6 1 -31 -27 -54 -63 -58 -87 -165 -222 -171 -216 -2 3 3 17 12 31
9 14 12 25 6 25 -5 0 -10 -5 -10 -11 0 -5 -4 -8 -10 -4 -5 3 -24 -11 -42 -32
-64 -73 -143 -143 -156 -138 -16 6 -49 -10 -79 -38 l-23 -20 0 26 0 26 -39
-17 c-22 -9 -38 -19 -36 -22 1 -3 -9 -16 -23 -30 -14 -14 -20 -17 -12 -7 11
15 11 17 -4 11 -9 -3 -23 -1 -31 6 -8 7 -15 9 -15 5 0 -5 -2 -6 -5 -3 -3 3 2
21 10 41 27 64 16 74 -20 18 -41 -65 -49 -74 -36 -39 13 33 -8 58 -29 33 -10
-12 -10 -18 1 -32 13 -15 12 -15 -8 -4 -19 10 -23 9 -23 -4 0 -9 4 -13 10 -10
10 6 -19 -68 -42 -104 -7 -12 -18 -19 -25 -17 -10 4 -28 -27 -25 -44 2 -15
-91 -179 -99 -174 -5 3 -7 10 -4 15 4 5 -3 9 -14 9 -12 0 -21 2 -21 5 0 3 25
41 55 86 67 97 80 125 59 133 -8 3 -14 12 -14 20 0 15 -27 29 -40 21 -4 -3
-19 6 -31 20 -13 13 -29 25 -35 25 -6 0 -16 12 -22 26 -7 15 -17 22 -24 18 -8
-5 -9 -2 -4 12 5 10 10 47 13 82 l6 63 24 -36 c26 -39 47 -43 81 -17 18 14 21
23 16 50 -4 20 -13 32 -23 33 -26 1 87 39 167 55 41 9 76 13 79 10 4 -3 -3 -6
-15 -6 l-22 0 20 -20 21 -21 30 26 31 25 -29 1 c-27 2 -27 2 -2 6 46 7 76 -12
84 -53 5 -28 9 -34 16 -23 7 11 11 12 18 1 6 -10 13 -3 24 25 8 22 22 45 31
52 20 17 21 50 1 57 -10 4 13 23 68 56 94 56 184 125 288 222 l71 66 37 -61
c19 -33 57 -81 84 -106z m-2923 104 c0 -13 14 -36 30 -52 17 -16 30 -33 30
-38 0 -4 14 -29 31 -53 17 -25 28 -51 25 -59 -6 -16 -81 -60 -117 -69 -39 -9
-57 16 -35 49 25 38 20 39 -31 4 -49 -34 -131 -69 -161 -69 -38 0 -43 21 -16
68 34 57 24 65 -15 11 -34 -46 -36 -52 -21 -78 8 -15 -4 -28 -78 -84 -48 -36
-100 -80 -117 -98 -18 -19 12 -1 70 43 55 41 109 85 119 97 14 15 30 21 60 21
l41 -1 -110 -104 c-60 -58 -133 -117 -162 -132 -28 -15 -50 -29 -48 -31 2 -3
29 10 60 27 31 17 59 29 64 27 4 -3 59 46 121 109 62 63 128 124 148 135 l35
21 14 -21 c9 -12 25 -20 44 -20 16 0 29 -4 29 -9 0 -5 -47 -53 -104 -108 -101
-98 -170 -143 -249 -164 -30 -8 -29 -8 8 -4 22 2 70 20 108 39 56 29 67 31 67
17 0 -22 19 -41 41 -41 9 0 43 13 75 30 69 35 68 35 56 13 -11 -19 2 -73 20
-85 7 -4 24 -8 38 -8 23 -1 19 -6 -35 -56 -61 -55 -92 -71 -121 -60 -23 9 -11
49 39 121 l40 60 -56 -52 c-78 -70 -170 -125 -222 -130 -65 -8 -66 10 -4 75
109 114 112 123 16 45 -124 -103 -202 -145 -270 -147 -30 0 -52 4 -54 11 -2 6
42 57 99 113 l103 102 -115 -86 c-120 -90 -236 -156 -308 -176 -46 -12 -82 -6
-82 13 0 37 296 334 342 342 12 3 26 10 32 16 8 8 4 9 -14 4 l-25 -7 25 28
c14 15 36 38 50 50 l25 22 18 -29 c11 -16 22 -29 25 -29 4 1 48 55 97 122 78
105 104 131 200 203 61 46 113 84 118 84 4 1 7 -9 7 -22z m3203 -335 c75 -75
107 -113 107 -129 0 -34 -24 -39 -89 -18 -43 13 -68 30 -108 71 -32 32 -53 63
-53 76 -1 13 -7 34 -14 47 -10 18 -11 31 -3 52 9 24 14 26 31 17 12 -6 69 -58
129 -116z m247 -27 c80 -79 100 -104 100 -126 0 -37 -17 -37 -107 -4 -79 30
-101 46 -214 157 l-86 84 46 0 c37 -1 48 3 55 20 9 20 10 20 58 -6 27 -15 94
-71 148 -125z m-3292 109 l19 -27 -31 -49 c-74 -119 -191 -218 -259 -218 -49
0 -34 38 53 135 79 89 179 185 192 185 3 0 15 -12 26 -26z m2845 -14 c31 -44
33 -86 5 -104 -16 -10 -61 -3 -109 18 -14 6 -12 -1 7 -41 28 -57 29 -69 9 -77
-8 -3 -15 -12 -15 -20 0 -9 -11 -23 -25 -32 -27 -18 -90 -12 -121 11 -17 12
-14 18 43 78 33 36 71 80 85 99 13 18 37 50 52 71 15 20 30 37 34 37 4 0 20
-18 35 -40z m-2774 -85 c36 -50 32 -69 -15 -78 -26 -5 -64 21 -64 43 0 19 29
80 38 80 5 0 23 -20 41 -45z m985 -32 c-5 -16 -9 -57 -9 -93 0 -57 4 -71 32
-110 20 -29 50 -56 85 -74 29 -16 61 -38 70 -50 16 -20 17 -20 37 -2 14 13 40
19 86 22 99 6 157 44 196 129 10 22 32 56 48 75 l30 35 1 -41 c0 -112 -76
-228 -172 -260 -28 -9 -69 -17 -91 -18 -34 -1 -43 -6 -62 -36 -37 -56 -103
-116 -116 -103 -13 13 -28 77 -29 121 0 27 -6 36 -32 50 -132 71 -190 209
-138 330 18 43 27 52 47 52 23 0 24 -3 17 -27z m71 -78 c29 -66 105 -149 154
-169 36 -14 45 -14 98 0 32 8 78 26 101 40 37 22 42 23 34 7 -30 -54 -85 -83
-159 -83 -36 0 -67 -6 -80 -15 -14 -10 -24 -12 -28 -5 -4 6 -28 21 -54 35
-100 50 -142 131 -120 233 11 53 12 55 22 32 5 -14 20 -47 32 -75z m1791 44
c29 -27 64 -89 64 -114 0 -19 -38 -35 -62 -26 -34 12 -109 83 -128 121 -11 22
-20 41 -20 42 0 2 27 3 60 2 49 0 65 -5 86 -25z m-1965 -6 c-12 -20 -14 -14
-5 12 4 9 9 14 11 11 3 -2 0 -13 -6 -23z m-959 -9 c17 -20 26 -24 50 -19 28 7
29 5 23 -16 -18 -56 -25 -68 -65 -99 -32 -25 -53 -34 -84 -34 -36 -1 -41 2
-44 23 -2 12 -1 33 2 46 6 23 81 125 92 125 3 0 15 -11 26 -26z m418 -265 c38
-28 67 -55 64 -60 -17 -29 -89 15 -77 47 5 13 2 15 -16 9 -12 -4 -27 -2 -34 3
-7 5 -30 15 -52 22 -58 18 -68 29 -62 66 l5 31 -46 -5 -47 -5 30 26 30 26 -37
-11 c-31 -9 -41 -8 -62 6 -30 19 -32 42 -12 91 l15 35 116 -114 c63 -63 146
-138 185 -167z m2631 211 c59 -26 109 -26 116 0 3 11 6 20 8 20 12 0 165 -168
165 -181 0 -54 -116 -18 -252 79 -27 19 -48 39 -48 45 0 6 -3 7 -7 4 -3 -4 5
-20 19 -35 27 -29 51 -88 42 -103 -12 -20 -54 -7 -110 34 -59 42 -59 42 -29
45 47 6 58 20 52 69 -2 24 -3 43 -2 43 2 0 22 -9 46 -20z m438 -31 c170 -156
179 -172 104 -177 -52 -4 -149 35 -248 100 -66 44 -157 127 -125 115 66 -25
153 -48 172 -45 17 2 24 11 26 31 2 15 6 27 9 27 3 0 31 -23 62 -51z m-554
-111 c31 -57 27 -81 -18 -96 -22 -7 -26 -10 -12 -11 11 -1 31 6 44 15 19 14
22 23 19 57 l-4 40 58 -61 c66 -71 85 -125 52 -149 -25 -19 -90 -11 -146 18
-72 37 -168 126 -112 105 49 -19 62 -14 19 7 -32 15 -71 48 -106 88 l-56 64
46 2 c42 2 50 -1 96 -45 49 -46 39 -28 -19 35 -26 29 -28 35 -18 58 l12 26 59
-52 c33 -29 71 -74 86 -101z m-331 97 c43 -65 -3 -112 -101 -102 l-53 6 0 -39
c0 -30 -5 -42 -21 -51 -22 -11 -109 -4 -109 9 0 4 26 24 58 45 31 20 63 42 71
49 58 52 126 108 132 108 4 0 14 -11 23 -25z m-2464 -63 c0 -22 -61 -90 -95
-106 -45 -22 -85 -21 -85 2 0 24 25 69 65 118 l35 42 40 -21 c22 -12 40 -28
40 -35z m2330 54 c0 -2 -8 -10 -17 -17 -16 -13 -17 -12 -4 4 13 16 21 21 21
13z m190 -17 c0 -6 21 -36 47 -67 114 -140 103 -235 -23 -187 -55 21 -96 54
-134 110 l-29 43 37 5 c33 4 41 0 78 -39 55 -59 66 -56 15 3 -36 42 -39 49
-26 63 8 9 15 31 15 48 0 18 5 32 10 32 6 0 10 -5 10 -11z m-370 -43 c0 -2 -8
-10 -17 -17 -16 -13 -17 -12 -4 4 13 16 21 21 21 13z m-2064 -43 c9 -36 7 -41
-29 -86 -43 -52 -82 -77 -121 -77 -33 0 -39 12 -23 47 16 39 98 140 117 146
37 11 47 6 56 -30z m1424 19 c0 -5 -7 -17 -15 -28 -14 -18 -14 -17 -4 9 12 27
19 34 19 19z m-1695 -43 c-22 -62 -20 -69 21 -69 19 0 44 5 55 10 53 29 -11
-61 -76 -105 -39 -27 -68 -39 -103 -43 -98 -9 -89 41 33 172 39 41 73 75 77
75 4 1 1 -18 -7 -40z m2589 -66 c27 -41 48 -85 52 -110 6 -37 3 -43 -20 -58
-24 -16 -29 -16 -75 0 -64 21 -92 44 -130 104 l-30 49 48 -1 c40 -2 52 -7 80
-37 l33 -35 -22 32 c-11 18 -25 35 -30 38 -5 3 0 15 10 25 11 11 20 32 20 46
0 34 10 26 64 -53z m-894 3 c19 -38 27 -45 45 -40 25 6 77 -31 59 -43 -6 -5
-24 -28 -41 -53 -54 -80 -212 -214 -230 -196 -8 7 25 56 38 56 5 0 9 16 7 36
-3 34 -1 37 27 41 32 5 65 29 65 47 0 7 -13 27 -30 46 -16 19 -29 40 -30 46 0
18 -29 25 -52 13 -11 -6 -22 -9 -24 -6 -3 2 8 10 24 16 16 7 46 30 67 51 21
22 41 37 45 35 3 -2 17 -24 30 -49z m-1351 32 c16 -10 18 -16 9 -32 -11 -21
-10 -21 10 -3 15 14 29 17 51 12 l30 -6 -30 -49 c-37 -60 -75 -93 -133 -115
-35 -14 -48 -15 -66 -5 -31 17 -21 59 36 143 47 68 60 76 93 55z m2017 -40 c4
-13 24 -51 46 -85 34 -54 38 -66 32 -102 -8 -51 -25 -65 -66 -57 -63 12 -113
51 -146 114 -35 65 -37 72 -22 72 6 0 39 18 73 40 34 22 65 40 69 40 4 0 10
-10 14 -22z m539 -69 c50 -68 56 -102 23 -120 -54 -29 -211 30 -243 92 -18 33
-12 35 38 14 72 -30 127 -10 127 47 0 15 2 28 5 28 3 0 25 -27 50 -61z m-2358
32 c20 11 26 10 40 -4 15 -15 14 -19 -10 -56 -47 -71 -87 -109 -133 -127 -41
-16 -47 -16 -61 -1 -23 23 -10 73 37 146 l40 62 31 -17 c27 -13 36 -14 56 -3z
m-428 -51 c12 0 36 7 53 16 29 15 31 15 24 -2 -33 -83 -12 -114 67 -97 29 6
59 14 67 17 12 5 16 -1 18 -21 6 -70 56 -92 121 -52 18 11 34 19 35 17 2 -2 8
-18 15 -35 15 -37 42 -43 75 -18 28 21 36 19 36 -9 0 -13 7 -27 16 -30 24 -9
62 -7 69 4 11 17 23 11 28 -15 3 -20 -3 -31 -28 -50 -17 -14 -46 -28 -63 -31
-27 -6 -32 -4 -32 13 0 10 8 30 17 43 12 18 5 14 -25 -12 -46 -41 -79 -53
-117 -44 -30 8 -33 43 -10 99 22 53 19 56 -16 14 -54 -65 -140 -95 -183 -64
-24 17 -15 58 25 121 39 63 37 66 -12 16 -83 -85 -219 -110 -219 -40 0 9 21
45 47 80 l47 65 -49 -43 c-50 -44 -104 -66 -145 -60 -38 5 -30 26 30 89 48 49
57 55 71 43 8 -8 26 -14 38 -14z m1316 -8 c0 -33 28 -41 56 -16 27 24 34 12
33 -54 0 -32 1 -49 3 -39 3 9 13 17 23 17 33 0 12 -24 -46 -52 -35 -16 -53
-21 -50 -13 3 8 -2 19 -10 26 -22 18 -38 -10 -18 -32 19 -21 18 -32 -5 -53
-20 -18 -23 -17 -46 29 -8 15 -21 20 -50 20 -36 0 -40 3 -45 30 -4 25 1 35 36
67 23 21 52 53 65 72 27 39 55 38 54 -2z m-781 -1 l29 -30 -27 -45 c-42 -72
-105 -109 -120 -71 -11 29 58 175 82 175 5 0 21 -13 36 -29z m1561 -49 c36
-70 36 -113 2 -137 -12 -8 -17 -15 -11 -15 15 0 41 30 53 60 7 18 10 20 10 7
1 -10 8 -29 17 -42 20 -30 22 -88 5 -109 -17 -21 -70 -21 -99 0 -25 17 -82 91
-82 105 0 5 12 4 26 -1 42 -16 40 -11 -8 19 -28 18 -53 44 -64 67 -17 36 -17
37 5 55 31 25 36 24 51 -11 7 -17 17 -33 21 -36 5 -3 1 11 -8 31 -18 37 -17
37 6 56 13 11 29 18 34 16 5 -1 24 -31 42 -65z m513 -75 c4 -31 1 -43 -13 -54
-45 -32 -121 -7 -192 63 -51 51 -47 64 12 40 75 -31 125 -10 125 52 l0 37 31
-49 c17 -28 34 -68 37 -89z m-2003 21 c12 -40 12 -54 3 -66 -28 -34 -88 -31
-88 4 0 21 49 114 60 114 5 0 16 -23 25 -52z m1333 -23 c21 -43 20 -72 -2 -87
-8 -5 -7 -8 1 -8 7 0 18 10 24 22 11 21 12 20 26 -13 8 -18 13 -47 11 -64 -2
-25 -8 -31 -31 -33 -42 -5 -107 40 -107 74 0 23 3 26 28 20 l27 -6 -27 15
c-29 16 -29 12 7 113 8 22 21 13 43 -33z m451 -20 c28 -53 27 -81 -4 -101 -50
-33 -136 2 -197 78 -32 40 -32 41 -8 34 102 -31 111 -32 136 -2 13 15 24 35
24 44 0 14 2 14 14 2 8 -8 24 -33 35 -55z m-578 -20 c11 7 10 -119 -1 -155 -6
-17 -8 -20 -9 -7 -1 16 -7 26 -37 60 -12 13 -11 21 14 87 10 29 18 39 20 27 2
-9 8 -15 13 -12z m-961 -97 c29 -77 39 -118 22 -91 -9 14 -32 2 -36 -18 -1 -8
-7 -24 -14 -36 -7 -12 -12 -29 -12 -37 0 -9 -4 -16 -10 -16 -10 0 -14 20 -12
53 1 11 -5 45 -13 77 -15 56 -11 109 11 170 8 23 28 -9 64 -102z m-183 55 c-3
-10 -5 -4 -5 12 0 17 2 24 5 18 2 -7 2 -21 0 -30z m899 -62 c-12 -12 -18 -12
-28 -3 -20 20 -28 14 -28 -24 0 -19 -4 -33 -9 -30 -12 8 -44 -43 -37 -60 3 -8
0 -14 -7 -14 -7 0 -14 -12 -15 -27 -6 -60 -7 -68 -17 -75 -5 -4 8 -8 30 -9 25
-2 12 -5 -35 -9 -93 -9 -285 -10 -248 -1 20 4 25 10 19 20 -5 8 -7 20 -4 27 4
12 -8 13 -59 5 -5 0 -8 -8 -8 -16 0 -8 -6 -15 -12 -16 -7 -1 -2 -5 12 -10 32
-11 -171 -2 -220 10 l-35 9 42 1 c31 1 41 5 37 14 -5 13 29 60 38 52 2 -3 16
8 30 23 26 26 26 29 13 77 -7 28 -11 53 -8 58 2 4 25 -10 49 -32 48 -42 117
-71 171 -71 21 0 40 -7 50 -20 10 -11 21 -20 25 -20 11 0 69 56 86 84 10 15
53 53 97 84 l80 58 3 -35 c2 -21 -3 -40 -12 -50z m-381 44 c0 -17 5 -33 10
-37 17 -13 -14 -9 -51 7 l-35 14 23 26 c29 33 53 29 53 -10z m475 -124 c-11
-23 -16 -41 -10 -41 5 0 9 -3 9 -7 -4 -23 3 -33 22 -33 12 0 23 -8 26 -20 3
-11 13 -20 22 -21 9 0 -6 -7 -34 -15 -57 -16 -118 -19 -96 -5 11 7 9 10 -8 16
-13 4 -28 1 -36 -5 -28 -23 -16 8 30 80 25 38 49 70 55 70 5 0 10 8 10 18 0
10 6 24 13 31 22 22 20 -23 -3 -68z m-87 4 c-3 -9 -8 -14 -10 -11 -3 3 -2 9 2
15 9 16 15 13 8 -4z m-803 -109 c0 -8 19 -18 48 -25 l47 -10 -45 5 c-25 2 -69
10 -97 16 -48 10 -53 14 -52 37 l1 26 8 -25 c4 -14 8 -20 9 -14 1 6 11 23 22
38 l21 27 19 -31 c11 -17 19 -37 19 -44z m1007 -12 c-3 -3 -12 -4 -19 -1 -8 3
-5 6 6 6 11 1 17 -2 13 -5z m-209 -41 c-10 -2 -28 -2 -40 0 -13 2 -5 4 17 4
22 1 32 -1 23 -4z"/>
<path d="M4363 13401 c-70 -24 -129 -64 -148 -102 -24 -45 -12 -46 38 -5 64
53 148 87 230 95 67 7 70 8 44 19 -40 17 -103 14 -164 -7z"/>
<path d="M4387 13306 c-46 -17 -83 -49 -91 -79 -3 -14 3 -10 24 15 35 42 98
63 166 55 30 -3 42 -1 36 5 -17 17 -95 19 -135 4z"/>
<path d="M4487 13230 c-32 -22 -77 -44 -100 -50 -64 -17 -67 -18 -67 -34 0
-12 7 -14 30 -9 30 5 43 -10 18 -20 -7 -3 4 -6 25 -6 47 -1 101 23 127 57 27
34 16 41 -16 11 -23 -20 -25 -21 -16 -4 6 11 24 33 41 49 30 29 39 46 24 46
-5 0 -34 -18 -66 -40z"/>
<path d="M4490 12739 c-8 -5 -36 -9 -62 -9 -27 0 -48 -5 -48 -10 0 -6 -11 -15
-25 -20 -14 -5 -28 -18 -32 -27 -4 -10 -11 -21 -17 -25 -6 -4 -8 -10 -4 -13 8
-8 88 15 108 31 8 6 34 21 57 33 23 11 44 25 47 30 9 14 -8 21 -24 10z m-59
-30 c-14 -5 -31 -15 -38 -21 -18 -15 -16 -3 3 16 8 9 25 16 37 15 21 0 21 -1
-2 -10z m-64 -35 c-3 -3 -12 -4 -19 -1 -8 3 -5 6 6 6 11 1 17 -2 13 -5z"/>
<path d="M4453 12649 c-11 -12 -36 -24 -54 -28 l-34 -8 27 -13 c40 -19 84 1
90 41 5 34 0 36 -29 8z"/>
<path d="M4000 13123 c-20 -7 -70 -54 -70 -66 0 -5 16 5 35 22 29 25 45 31 81
31 28 0 43 4 39 10 -6 10 -59 12 -85 3z"/>
<path d="M4745 11520 c-18 -19 -17 -20 3 -20 15 0 22 6 22 20 0 11 -2 20 -3
20 -2 0 -12 -9 -22 -20z"/>
<path d="M4290 11406 c0 -2 7 -6 15 -10 8 -3 15 -1 15 4 0 6 -7 10 -15 10 -8
0 -15 -2 -15 -4z"/>
<path d="M4270 11349 c0 -5 5 -7 10 -4 6 3 10 8 10 11 0 2 -4 4 -10 4 -5 0
-10 -5 -10 -11z"/>
<path d="M4140 10841 c0 -5 5 -13 10 -16 6 -3 10 -2 10 4 0 5 -4 13 -10 16 -5
3 -10 2 -10 -4z"/>
<path d="M4160 10650 c-12 -8 -9 -10 13 -10 16 0 26 4 22 10 -8 12 -16 12 -35
0z"/>
<path d="M5212 10350 c0 -19 2 -27 5 -17 2 9 2 25 0 35 -3 9 -5 1 -5 -18z"/>
<path d="M5360 9820 c-11 -20 7 -110 22 -110 4 0 8 -9 8 -19 0 -19 14 -22 38
-8 10 7 9 13 -3 30 -13 19 -13 23 2 39 9 10 12 18 6 18 -5 0 -17 16 -26 35
-19 40 -32 44 -47 15z"/>
<path d="M5440 9804 c0 -8 5 -12 10 -9 6 3 10 10 10 16 0 5 -4 9 -10 9 -5 0
-10 -7 -10 -16z"/>
<path d="M5203 9625 c-9 -10 -9 -14 0 -18 7 -2 18 1 24 8 9 10 9 14 0 18 -7 2
-18 -1 -24 -8z"/>
<path d="M5590 9461 c0 -5 5 -13 10 -16 6 -3 10 -2 10 4 0 5 -4 13 -10 16 -5
3 -10 2 -10 -4z"/>
<path d="M3900 10410 c7 -13 7 -21 0 -25 -5 -3 -10 -14 -10 -23 0 -13 2 -13
14 4 12 16 15 16 19 4 3 -8 8 -22 10 -30 3 -8 6 3 6 25 1 33 -3 42 -24 51 -22
11 -24 10 -15 -6z"/>
<path d="M3862 10239 c-11 -42 -9 -59 7 -59 13 0 23 68 13 86 -7 13 -11 7 -20
-27z"/>
<path d="M3700 9944 c0 -8 5 -12 10 -9 6 3 10 10 10 16 0 5 -4 9 -10 9 -5 0
-10 -7 -10 -16z"/>
<path d="M4032 9878 c-7 -7 -12 -8 -12 -2 0 5 -5 2 -10 -6 -6 -10 -10 -11 -10
-2 0 22 -30 13 -40 -13 -5 -14 -17 -25 -26 -25 -14 0 -16 -7 -11 -41 3 -22 8
-43 11 -47 4 -3 22 10 41 28 19 19 35 28 35 21 0 -27 30 18 39 58 9 42 4 50
-17 29z"/>
<path d="M3860 9793 c-14 -9 -26 -17 -28 -19 -2 -1 2 -11 10 -23 10 -16 10
-23 0 -33 -6 -6 -12 -26 -12 -42 l1 -31 24 28 c14 15 25 35 25 43 0 8 5 14 10
14 11 0 12 36 2 63 -7 16 -9 16 -32 0z"/>
<path d="M4035 9430 c-3 -5 -1 -10 4 -10 6 0 11 5 11 10 0 6 -2 10 -4 10 -3 0
-8 -4 -11 -10z"/>
<path d="M3929 8526 c-9 -18 -9 -30 -2 -37 7 -7 12 0 17 22 8 41 0 49 -15 15z"/>
<path d="M3985 8380 c-3 -5 -1 -10 4 -10 6 0 11 5 11 10 0 6 -2 10 -4 10 -3 0
-8 -4 -11 -10z"/>
<path d="M3791 8334 c0 -11 3 -14 6 -6 3 7 2 16 -1 19 -3 4 -6 -2 -5 -13z"/>
<path d="M3751 8038 c-1 -20 14 -24 25 -6 4 6 3 8 -4 4 -5 -3 -13 0 -15 6 -3
8 -6 6 -6 -4z"/>
<path d="M3630 7954 c-6 -15 -8 -36 -4 -47 6 -20 7 -20 20 -2 16 22 18 61 4
70 -6 3 -15 -6 -20 -21z"/>
<path d="M3566 7737 c3 -10 9 -15 12 -12 3 3 0 11 -7 18 -10 9 -11 8 -5 -6z"/>
<path d="M3555 7629 c-10 -15 3 -25 16 -12 7 7 7 13 1 17 -6 3 -14 1 -17 -5z"/>
<path d="M3803 7093 c-15 -5 -18 -33 -4 -33 8 0 25 30 19 35 -2 1 -9 0 -15 -2z"/>
<path d="M3772 6978 c-7 -7 -20 -13 -30 -13 -12 0 -19 -12 -23 -40 -7 -42 1
-55 35 -55 15 0 17 5 12 31 -3 19 0 42 9 60 17 32 16 36 -3 17z"/>
<path d="M3830 6573 c0 -10 4 -14 8 -8 4 6 11 13 16 18 5 4 2 7 -7 7 -10 0
-17 -8 -17 -17z"/>
<path d="M3762 6465 c0 -16 2 -22 5 -12 2 9 2 23 0 30 -3 6 -5 -1 -5 -18z"/>
<path d="M3630 6326 c0 -2 7 -9 15 -16 9 -7 15 -8 15 -2 0 5 -7 12 -15 16 -8
3 -15 4 -15 2z"/>
<path d="M3390 6160 c0 -32 22 -73 32 -58 4 8 8 -7 8 -37 0 -43 2 -48 15 -35
13 13 12 23 -6 83 -13 43 -25 67 -34 67 -8 0 -15 -9 -15 -20z"/>
<path d="M3467 6000 c-10 -12 -22 -18 -27 -15 -5 3 -5 -8 1 -27 5 -18 9 -33 9
-34 0 -1 11 1 25 4 24 4 31 21 26 60 -1 6 4 12 11 12 9 0 9 3 -2 10 -21 13
-23 13 -43 -10z"/>
<path d="M3400 5873 c0 -5 5 -15 10 -23 8 -12 10 -11 10 8 0 12 -4 22 -10 22
-5 0 -10 -3 -10 -7z"/>
<path d="M3740 5823 c0 -8 5 -11 11 -7 6 3 15 0 20 -7 7 -11 9 -11 9 2 0 9 -9
19 -20 22 -13 3 -20 0 -20 -10z"/>
<path d="M3462 5783 c1 -10 -1 -23 -4 -29 -9 -14 2 -55 13 -48 5 3 17 20 26
37 15 30 15 31 0 18 -18 -14 -22 -7 -18 27 1 6 -3 12 -9 12 -6 0 -10 -8 -8
-17z"/>
<path d="M3462 5540 c0 -19 2 -27 5 -17 2 9 2 25 0 35 -3 9 -5 1 -5 -18z"/>
<path d="M3450 5458 c0 -19 2 -20 10 -8 13 19 13 30 0 30 -5 0 -10 -10 -10
-22z"/>
<path d="M3486 5433 c-11 -11 -6 -23 9 -23 8 0 15 4 15 9 0 13 -16 22 -24 14z"/>
<path d="M3503 5378 c-12 -6 -24 -17 -27 -25 -4 -9 -2 -12 7 -7 9 6 9 4 -1 -8
-10 -12 -9 -18 3 -28 21 -17 32 -4 38 43 3 20 4 37 3 36 0 0 -11 -5 -23 -11z"/>
<path d="M3620 5110 c-9 -6 -10 -10 -3 -10 6 0 15 5 18 10 8 12 4 12 -15 0z"/>
<path d="M3499 5080 c-8 -6 -8 -9 0 -14 6 -4 11 -15 10 -24 0 -14 -1 -15 -7
-2 -4 9 -13 15 -19 14 -7 -1 -18 -2 -23 -3 -16 -2 32 -47 51 -48 12 -1 15 6
13 33 -1 19 1 32 5 30 4 -3 8 1 8 8 0 14 -19 17 -38 6z"/>
<path d="M3615 5009 c-4 -6 -5 -13 -2 -16 7 -7 27 6 27 18 0 12 -17 12 -25 -2z"/>
<path d="M3793 4695 c0 -22 2 -30 4 -17 2 12 2 30 0 40 -3 9 -5 -1 -4 -23z"/>
<path d="M3510 4465 c-1 -5 -2 -14 -1 -18 1 -4 -4 -18 -10 -30 -11 -21 -10
-21 6 -6 10 10 15 26 12 40 -2 13 -5 20 -7 14z"/>
<path d="M3862 4270 c0 -14 2 -19 5 -12 2 6 2 18 0 25 -3 6 -5 1 -5 -13z"/>
<path d="M4298 4033 c7 -3 16 -2 19 1 4 3 -2 6 -13 5 -11 0 -14 -3 -6 -6z"/>
<path d="M3589 3963 c-12 -16 -12 -17 2 -6 9 7 19 10 22 6 4 -3 7 -1 7 5 0 17
-16 15 -31 -5z"/>
<path d="M4790 8890 c0 -24 15 -27 24 -4 9 22 8 24 -9 24 -8 0 -15 -9 -15 -20z"/>
<path d="M4917 8716 c-4 -10 -5 -21 -2 -24 9 -9 17 6 13 25 -3 17 -4 17 -11
-1z"/>
<path d="M4677 8614 c3 -7 9 -14 14 -14 14 0 10 17 -5 23 -10 4 -13 1 -9 -9z"/>
<path d="M4762 8520 c0 -19 2 -27 5 -17 2 9 2 25 0 35 -3 9 -5 1 -5 -18z"/>
<path d="M4886 8409 c-14 -17 -26 -40 -26 -52 0 -16 3 -18 9 -9 4 8 17 12 27
10 16 -2 19 4 20 40 0 23 -1 42 -2 42 -1 0 -14 -14 -28 -31z"/>
<path d="M5180 8410 c-13 -8 -12 -10 3 -10 9 0 17 5 17 10 0 12 -1 12 -20 0z"/>
<path d="M4946 8373 c-6 -14 -5 -15 5 -6 7 7 10 15 7 18 -3 3 -9 -2 -12 -12z"/>
<path d="M5565 8343 c-10 -27 -5 -34 15 -23 11 6 20 17 20 24 0 17 -28 16 -35
-1z"/>
<path d="M5145 8310 c-3 -5 -1 -10 4 -10 6 0 11 5 11 10 0 6 -2 10 -4 10 -3 0
-8 -4 -11 -10z"/>
<path d="M5525 8270 c-21 -23 -18 -40 6 -40 34 0 58 18 52 39 -6 23 -38 24
-58 1z"/>
<path d="M5461 8254 c0 -11 3 -14 6 -6 3 7 2 16 -1 19 -3 4 -6 -2 -5 -13z"/>
<path d="M5608 8223 c-44 -18 -47 -27 -15 -48 19 -12 30 -13 54 -5 25 9 30 16
29 40 -1 34 -12 36 -68 13z"/>
<path d="M4757 8164 c3 -7 9 -14 14 -14 14 0 10 17 -5 23 -10 4 -13 1 -9 -9z"/>
<path d="M4792 8150 c0 -14 2 -19 5 -12 2 6 2 18 0 25 -3 6 -5 1 -5 -13z"/>
<path d="M4980 8101 c0 -5 7 -12 16 -15 24 -9 28 -7 14 9 -14 17 -30 20 -30 6z"/>
<path d="M5623 8033 c-22 -8 -14 -23 13 -23 15 0 24 5 22 12 -5 14 -18 18 -35
11z"/>
<path d="M5050 7949 c0 -5 5 -7 10 -4 6 3 10 8 10 11 0 2 -4 4 -10 4 -5 0 -10
-5 -10 -11z"/>
<path d="M5176 7904 c-8 -21 -1 -28 19 -20 9 3 15 11 13 18 -7 19 -25 20 -32
2z"/>
<path d="M4880 7880 c-12 -23 2 -27 19 -6 8 9 8 16 2 20 -6 4 -15 -3 -21 -14z"/>
<path d="M4912 7820 c0 -14 2 -19 5 -12 2 6 2 18 0 25 -3 6 -5 1 -5 -13z"/>
<path d="M4655 7730 c3 -5 10 -10 16 -10 5 0 9 5 9 10 0 6 -7 10 -16 10 -8 0
-12 -4 -9 -10z"/>
<path d="M4836 7714 c-18 -17 -21 -28 -6 -19 6 3 10 -3 10 -14 0 -25 31 -29
49 -7 9 11 9 19 -1 35 -15 25 -31 27 -52 5z"/>
<path d="M4680 7710 c-9 -6 -10 -10 -3 -10 6 0 15 5 18 10 8 12 4 12 -15 0z"/>
<path d="M4927 7653 c-4 -3 -7 -11 -7 -17 0 -6 5 -5 12 2 6 6 9 14 7 17 -3 3
-9 2 -12 -2z"/>
<path d="M5665 7610 c-3 -5 -1 -10 4 -10 6 0 11 5 11 10 0 6 -2 10 -4 10 -3 0
-8 -4 -11 -10z"/>
<path d="M4780 7570 c0 -5 7 -10 16 -10 8 0 12 5 9 10 -3 6 -10 10 -16 10 -5
0 -9 -4 -9 -10z"/>
<path d="M5635 7500 c-3 -5 -2 -10 4 -10 5 0 13 5 16 10 3 6 2 10 -4 10 -5 0
-13 -4 -16 -10z"/>
<path d="M5360 7396 c7 -7 13 -7 20 0 6 6 3 10 -10 10 -13 0 -16 -4 -10 -10z"/>
<path d="M5761 7214 c0 -11 3 -14 6 -6 3 7 2 16 -1 19 -3 4 -6 -2 -5 -13z"/>
<path d="M5702 7094 c-14 -16 -5 -18 17 -5 7 5 9 11 5 14 -5 3 -15 -1 -22 -9z"/>
<path d="M5155 7070 c-3 -6 1 -7 9 -4 18 7 21 14 7 14 -6 0 -13 -4 -16 -10z"/>
<path d="M5218 6970 c-27 -21 -40 -60 -27 -82 6 -9 9 -8 15 5 3 9 12 17 20 17
11 0 20 22 12 33 -1 1 4 12 11 25 15 27 2 28 -31 2z"/>
<path d="M5538 6983 c7 -3 16 -2 19 1 4 3 -2 6 -13 5 -11 0 -14 -3 -6 -6z"/>
<path d="M5028 6929 c18 -7 22 -14 17 -29 -3 -11 -3 -20 2 -20 5 0 9 -10 10
-21 3 -31 19 -45 36 -31 8 7 17 9 20 5 4 -3 7 3 7 15 0 17 -6 22 -27 22 l-28
1 28 15 c15 8 27 17 27 20 0 2 -9 0 -19 -6 -14 -7 -22 -7 -27 2 -4 6 -3 8 4 4
6 -3 13 -2 16 3 3 5 -8 14 -26 20 -38 14 -73 14 -40 0z"/>
<path d="M5086 6814 c-16 -11 -22 -11 -28 -1 -6 9 -8 9 -8 0 0 -11 37 -43 51
-43 11 0 17 24 10 42 -5 15 -8 15 -25 2z"/>
<path d="M5053 6745 c0 -8 7 -15 15 -15 12 0 12 3 2 15 -7 8 -13 15 -15 15 -1
0 -2 -7 -2 -15z"/>
<path d="M5007 6736 c-4 -10 -5 -21 -2 -24 9 -9 17 6 13 25 -3 17 -4 17 -11
-1z"/>
<path d="M5777 6649 c-3 -11 0 -16 8 -12 19 7 26 30 10 30 -8 0 -16 -8 -18
-18z"/>
<path d="M5050 6650 c-12 -8 -9 -10 13 -10 15 0 27 5 27 10 0 13 -20 13 -40 0z"/>
<path d="M4952 6538 c3 -7 12 -14 22 -14 14 -2 14 -1 -1 3 -16 5 -16 6 2 14
19 7 18 8 -3 8 -15 1 -22 -4 -20 -11z"/>
<path d="M4745 6320 c-3 -6 1 -13 10 -16 21 -9 26 -2 10 13 -9 8 -16 9 -20 3z"/>
<path d="M4676 6294 c-6 -15 -4 -15 11 -3 10 7 20 15 22 16 2 2 -3 3 -11 3 -9
0 -19 -7 -22 -16z"/>
<path d="M4910 6280 c0 -5 4 -10 9 -10 6 0 13 5 16 10 3 6 -1 10 -9 10 -9 0
-16 -4 -16 -10z"/>
<path d="M5537 6183 c-12 -11 -8 -21 8 -19 8 1 21 8 27 14 9 9 7 12 -8 12 -12
0 -24 -3 -27 -7z"/>
<path d="M4850 5938 c0 -9 7 -19 16 -22 15 -6 15 -4 3 11 -7 10 -15 20 -16 22
-2 2 -3 -3 -3 -11z"/>
<path d="M5070 5936 c0 -2 7 -7 16 -10 8 -3 12 -2 9 4 -6 10 -25 14 -25 6z"/>
<path d="M4830 5903 c0 -5 4 -14 9 -21 7 -11 9 -11 14 1 3 8 3 18 0 21 -9 8
-23 7 -23 -1z"/>
<path d="M5790 5906 c0 -9 30 -14 35 -6 4 6 -3 10 -14 10 -12 0 -21 -2 -21 -4z"/>
<path d="M4803 5876 c-10 -11 -9 -15 2 -20 10 -4 15 1 15 14 0 23 -1 24 -17 6z"/>
<path d="M5214 5853 c-15 -16 -24 -36 -22 -50 4 -31 20 -32 35 -3 6 12 15 25
20 29 4 3 14 16 21 29 11 20 10 22 -8 22 -12 0 -32 -12 -46 -27z"/>
<path d="M4810 5821 c0 -8 -7 -10 -20 -6 -16 5 -20 2 -20 -18 0 -19 4 -24 18
-21 13 4 22 -9 40 -53 42 -103 60 -259 39 -341 -5 -19 -4 -21 14 -12 19 11 23
20 20 50 -1 12 1 11 9 -2 16 -25 26 -148 12 -148 -24 0 -41 -30 -35 -65 4 -22
0 -43 -9 -57 -26 -40 -3 -97 32 -78 25 13 30 4 29 -54 l0 -51 -16 33 c-19 36
-39 43 -29 10 4 -13 9 -38 13 -55 4 -23 11 -33 24 -33 27 0 24 -19 -5 -29 -28
-11 -39 -36 -27 -59 4 -9 6 -22 4 -29 -5 -13 31 -36 41 -26 3 3 6 -7 5 -23 0
-27 -1 -28 -9 -6 -11 26 -16 27 -36 8 -17 -17 -18 -58 -3 -73 8 -8 17 -5 34
14 13 16 22 21 22 12 0 -8 3 -69 7 -136 l6 -121 -35 -53 c-38 -58 -35 -67 23
-68 28 -1 37 -23 21 -52 -9 -17 -9 -24 0 -27 6 -2 11 -13 11 -24 0 -13 -5 -18
-14 -15 -8 3 -21 -2 -30 -12 -17 -19 -22 -56 -6 -46 6 3 10 2 10 -3 0 -19 30
-7 31 12 l0 21 9 -21 c4 -12 13 -66 19 -120 14 -123 19 -144 31 -144 6 0 10
28 10 61 0 47 4 65 18 75 15 12 15 13 1 14 -20 0 -29 39 -29 131 0 49 4 69 13
69 9 0 8 3 -2 9 -9 6 -11 20 -6 50 4 23 11 39 16 35 15 -9 10 1 -11 26 -20 23
-27 46 -11 36 5 -3 12 18 15 46 4 29 12 58 18 65 7 9 7 13 0 13 -13 0 -14 10
-13 110 1 43 5 76 11 78 7 3 5 9 -4 16 -12 9 -12 20 -3 65 12 57 10 62 -49 97
-14 8 -11 10 19 6 27 -3 38 0 43 12 3 9 9 14 13 12 3 -3 6 14 6 37 0 23 4 52
8 63 5 15 4 22 -5 21 -39 -1 -49 4 -44 21 3 9 1 58 -5 107 -6 50 -12 113 -13
140 -2 28 -6 61 -9 75 -39 164 -47 202 -47 223 0 18 -15 36 -55 66 -61 46 -97
90 -102 123 -4 24 -13 38 -13 19z"/>
<path d="M5631 5454 c0 -11 3 -14 6 -6 3 7 2 16 -1 19 -3 4 -6 -2 -5 -13z"/>
<path d="M5765 5420 c-3 -5 1 -10 9 -10 9 0 16 5 16 10 0 6 -4 10 -9 10 -6 0
-13 -4 -16 -10z"/>
<path d="M4515 5410 c-3 -5 -1 -10 4 -10 6 0 11 5 11 10 0 6 -2 10 -4 10 -3 0
-8 -4 -11 -10z"/>
<path d="M4881 5324 c0 -11 3 -14 6 -6 3 7 2 16 -1 19 -3 4 -6 -2 -5 -13z"/>
<path d="M5797 5296 c-3 -8 -2 -18 3 -21 13 -8 20 9 11 24 -6 10 -10 9 -14 -3z"/>
<path d="M4702 5193 c2 -14 10 -29 18 -31 8 -3 12 -1 8 3 -4 4 -3 17 3 28 8
14 8 18 0 13 -6 -4 -11 -2 -11 3 0 6 -5 11 -11 11 -6 0 -9 -12 -7 -27z"/>
<path d="M5533 5199 c-8 -8 -8 -20 -3 -34 5 -13 8 -25 7 -27 -1 -2 6 5 16 15
32 35 13 79 -20 46z"/>
<path d="M5645 5179 c-4 -6 -17 -14 -29 -19 l-21 -9 22 0 c13 -1 27 8 33 19
11 21 6 28 -5 9z"/>
<path d="M4750 4994 c0 -8 5 -12 10 -9 6 3 10 10 10 16 0 5 -4 9 -10 9 -5 0
-10 -7 -10 -16z"/>
<path d="M5234 4681 c4 -6 16 -16 28 -22 15 -8 18 -8 14 0 -4 6 -16 16 -28 22
-15 8 -18 8 -14 0z"/>
<path d="M4925 4651 c-3 -5 -1 -12 5 -16 5 -3 10 1 10 9 0 18 -6 21 -15 7z"/>
<path d="M4935 4599 c-4 -6 -5 -12 -2 -15 2 -3 7 2 10 11 7 17 1 20 -8 4z"/>
<path d="M5388 4382 c-3 -20 -5 -38 -4 -38 1 -1 15 12 31 28 28 28 29 29 6 23
-15 -5 -21 -3 -17 3 3 6 2 13 -3 16 -5 3 -11 -11 -13 -32z"/>
<path d="M6263 4360 c0 -25 2 -35 4 -22 2 12 2 32 0 45 -2 12 -4 2 -4 -23z"/>
<path d="M6033 4383 c-15 -5 -17 -23 -4 -23 5 0 11 7 15 15 3 8 4 15 3 14 -1
0 -8 -3 -14 -6z"/>
<path d="M5362 4235 c-17 -37 -14 -45 4 -12 9 16 14 31 11 33 -2 2 -9 -7 -15
-21z"/>
<path d="M4890 4206 c0 -9 -4 -16 -10 -16 -5 0 -10 -4 -10 -10 0 -17 19 -11
30 9 7 13 7 22 0 26 -5 3 -10 -1 -10 -9z"/>
<path d="M5525 4010 c3 -5 8 -10 11 -10 2 0 4 5 4 10 0 6 -5 10 -11 10 -5 0
-7 -4 -4 -10z"/>
<path d="M6103 3955 c-3 -9 -3 -18 0 -21 9 -9 27 6 27 22 0 19 -19 18 -27 -1z"/>
<path d="M5012 3719 c4 -27 23 -36 31 -15 4 10 -2 20 -14 27 -18 9 -20 8 -17
-12z"/>
<path d="M4174 8504 c-26 -18 -21 -50 8 -57 18 -5 20 -2 14 24 -3 16 -1 29 4
29 6 0 10 5 10 10 0 14 -11 12 -36 -6z"/>
<path d="M4115 7859 c-4 -5 -4 -13 -1 -16 3 -3 -1 -18 -9 -33 -12 -23 -12 -30
-1 -39 19 -16 49 -3 40 18 -4 9 -7 28 -6 43 1 29 -12 45 -23 27z"/>
<path d="M4175 7782 c6 -72 24 -142 35 -142 4 0 13 14 20 30 10 24 10 33 0 45
-7 8 -17 12 -23 8 -6 -4 -8 0 -4 11 10 26 -4 104 -20 110 -12 5 -14 -5 -8 -62z"/>
<path d="M4390 7916 c0 -8 4 -17 9 -20 5 -4 7 3 4 14 -6 23 -13 26 -13 6z"/>
<path d="M4200 7264 c0 -8 5 -12 10 -9 6 3 10 10 10 16 0 5 -4 9 -10 9 -5 0
-10 -7 -10 -16z"/>
<path d="M4210 7223 c0 -5 5 -25 11 -46 9 -33 12 -36 30 -27 11 6 24 8 29 5
19 -12 10 14 -16 44 -24 28 -54 42 -54 24z"/>
<path d="M4100 6895 c0 -8 4 -15 10 -15 5 0 7 7 4 15 -4 8 -8 15 -10 15 -2 0
-4 -7 -4 -15z"/>
<path d="M4390 6761 c0 -6 4 -13 10 -16 6 -3 7 1 4 9 -7 18 -14 21 -14 7z"/>
<path d="M4120 5420 c0 -5 5 -10 10 -10 6 0 10 5 10 10 0 6 -4 10 -10 10 -5 0
-10 -4 -10 -10z"/>
<path d="M4150 5351 c0 -34 5 -51 15 -55 22 -8 45 21 45 59 0 25 -5 34 -22 39
-37 9 -38 8 -38 -43z"/>
<path d="M4088 5163 c7 -3 16 -2 19 1 4 3 -2 6 -13 5 -11 0 -14 -3 -6 -6z"/>
<path d="M4240 5150 c20 -13 43 -13 35 0 -3 6 -16 10 -28 10 -18 0 -19 -2 -7
-10z"/>
<path d="M4010 5122 c0 -5 7 -9 15 -9 8 0 12 4 9 9 -3 4 -9 8 -15 8 -5 0 -9
-4 -9 -8z"/>
<path d="M4241 5098 c4 -34 -10 -66 -31 -73 -17 -5 -17 -8 3 -55 l20 -48 19
23 c10 13 16 29 13 37 -3 8 8 34 25 59 30 45 38 65 20 54 -6 -3 -17 1 -26 9
-23 24 -46 20 -43 -6z m17 -52 c-7 -8 -15 -12 -17 -11 -5 6 10 25 20 25 5 0 4
-6 -3 -14z"/>
<path d="M4203 4725 c0 -8 4 -12 9 -9 4 3 8 9 8 15 0 5 -4 9 -8 9 -5 0 -9 -7
-9 -15z"/>
<path d="M4250 4636 c0 -9 5 -16 10 -16 6 0 10 4 10 9 0 6 -4 13 -10 16 -5 3
-10 -1 -10 -9z"/>
<path d="M4382 4423 c2 -10 14 -19 26 -21 21 -3 22 -1 12 17 -13 26 -43 28
-38 4z"/>
<path d="M4471 4374 c0 -11 3 -14 6 -6 3 7 2 16 -1 19 -3 4 -6 -2 -5 -13z"/>
<path d="M4414 4314 c-6 -3 -9 -16 -6 -30 3 -18 7 -22 13 -13 5 9 13 4 26 -19
21 -37 29 -40 36 -13 8 30 -3 70 -18 65 -7 -3 -16 -1 -20 5 -6 12 -13 12 -31
5z"/>
<path d="M3783 3586 c0 -8 6 -12 14 -9 7 3 13 9 13 14 0 5 -6 9 -13 9 -8 0
-14 -6 -14 -14z"/>
<path d="M4615 3429 c-4 -12 -2 -26 4 -32 8 -8 11 -7 11 5 0 9 3 23 6 32 3 9
1 16 -4 16 -6 0 -14 -9 -17 -21z"/>
<path d="M4574 3384 c-4 -16 -12 -32 -18 -36 -6 -4 7 -7 29 -7 22 0 34 3 28 6
-7 2 -13 12 -13 21 0 10 -4 24 -9 31 -8 12 -11 8 -17 -15z"/>
<path d="M4198 3373 c7 -3 16 -2 19 1 4 3 -2 6 -13 5 -11 0 -14 -3 -6 -6z"/>
<path d="M4183 3303 c-15 -5 -17 -23 -4 -23 5 0 11 7 15 15 3 8 4 15 3 14 -1
0 -8 -3 -14 -6z"/>
<path d="M4010 3255 c0 -8 2 -15 4 -15 2 0 6 7 10 15 3 8 1 15 -4 15 -6 0 -10
-7 -10 -15z"/>
<path d="M4270 3255 c0 -8 2 -15 4 -15 2 0 6 7 10 15 3 8 1 15 -4 15 -6 0 -10
-7 -10 -15z"/>
<path d="M5079 3223 c0 -5 -2 -16 -4 -25 -2 -10 1 -18 6 -18 5 0 9 11 9 25 0
22 -9 37 -11 18z"/>
<path d="M4990 3195 c0 -5 5 -17 10 -25 5 -8 10 -10 10 -5 0 6 -5 17 -10 25
-5 8 -10 11 -10 5z"/>
<path d="M4066 2982 c-6 -10 31 -48 39 -40 3 3 -3 15 -14 27 -11 12 -22 18
-25 13z"/>
<path d="M4800 2974 c0 -8 5 -12 10 -9 6 3 10 10 10 16 0 5 -4 9 -10 9 -5 0
-10 -7 -10 -16z"/>
<path d="M5795 2820 c-3 -5 -1 -10 4 -10 6 0 11 5 11 10 0 6 -2 10 -4 10 -3 0
-8 -4 -11 -10z"/>
<path d="M6253 2594 c-3 -9 0 -20 8 -25 21 -13 28 -11 24 9 -2 9 -4 20 -4 25
-2 13 -22 7 -28 -9z"/>
<path d="M4950 2720 c0 -7 8 -9 21 -5 15 5 19 4 15 -4 -4 -6 -2 -11 4 -11 7 0
10 6 8 13 -6 15 -48 22 -48 7z"/>
<path d="M3337 2525 c-9 -26 -12 -47 -6 -50 5 -4 11 0 13 7 2 7 9 28 15 47 13
41 13 41 2 41 -5 0 -16 -20 -24 -45z"/>
<path d="M6446 2405 c-11 -8 -18 -17 -15 -19 2 -3 15 4 29 14 14 11 21 20 15
19 -5 0 -19 -6 -29 -14z"/>
<path d="M3765 2180 c10 -11 20 -20 23 -20 3 0 -3 9 -13 20 -10 11 -20 20 -23
20 -3 0 3 -9 13 -20z"/>
<path d="M3912 2009 c2 -51 14 -58 46 -25 24 23 25 27 11 41 -8 9 -25 17 -37
20 -20 3 -22 0 -20 -36z"/>
<path d="M4200 1894 c0 -13 -1 -27 -2 -31 -2 -3 7 -7 20 -8 17 -1 21 3 17 15
-4 12 0 16 15 15 11 -1 23 -4 26 -8 10 -10 24 -9 24 1 0 5 -22 15 -50 24 l-50
16 0 -24z"/>
<path d="M4368 1663 c-6 -29 6 -90 15 -75 5 6 5 17 2 22 -3 6 -1 10 4 10 6 0
11 -4 11 -10 0 -5 4 -10 9 -10 17 0 9 61 -10 70 -24 13 -26 13 -31 -7z"/>
<path d="M4443 1595 c-1 -17 8 -38 18 -48 23 -22 23 -14 0 38 -18 40 -18 40
-18 10z"/>
<path d="M4476 1395 c4 -8 11 -15 16 -15 6 0 5 6 -2 15 -7 8 -14 15 -16 15 -2
0 -1 -7 2 -15z"/>
<path d="M4446 1155 c4 -8 8 -15 10 -15 2 0 4 7 4 15 0 8 -4 15 -10 15 -5 0
-7 -7 -4 -15z"/>
<path d="M6500 2176 c0 -3 9 -10 20 -16 11 -6 20 -8 20 -6 0 3 -9 10 -20 16
-11 6 -20 8 -20 6z"/>
<path d="M4580 2046 c0 -14 5 -28 10 -31 6 -4 10 7 10 24 0 17 -4 31 -10 31
-5 0 -10 -11 -10 -24z"/>
<path d="M4792 2051 c-10 -6 -3 -10 22 -15 19 -4 56 -22 81 -41 38 -29 45 -32
45 -17 0 48 -106 100 -148 73z"/>
<path d="M4782 1963 c7 -16 18 -36 26 -45 16 -20 57 -24 67 -8 4 6 11 8 16 5
5 -4 9 0 9 8 0 9 -11 14 -31 15 -19 0 -42 11 -58 26 -35 33 -43 33 -29 -1z"/>
<path d="M5020 1855 c0 -26 44 -47 74 -36 14 6 26 16 26 22 0 6 -7 8 -16 5 -9
-3 -25 1 -37 9 -27 19 -47 19 -47 0z"/>
<path d="M4800 1716 c0 -10 74 -44 100 -46 47 -4 45 1 -10 21 -80 29 -90 32
-90 25z"/>
<path d="M4820 1655 c0 -9 44 -23 54 -17 5 3 1 9 -10 13 -23 9 -44 11 -44 4z"/>
<path d="M6057 2152 c-20 -21 -23 -29 -12 -29 8 0 13 3 10 5 -3 3 5 16 17 29
12 13 19 23 17 23 -3 0 -17 -13 -32 -28z"/>
<path d="M5471 1634 c0 -11 3 -14 6 -6 3 7 2 16 -1 19 -3 4 -6 -2 -5 -13z"/>
<path d="M5403 1600 c-18 -28 -16 -44 3 -26 8 9 14 23 12 31 -2 13 -6 12 -15
-5z"/>
<path d="M5730 1405 c0 -14 50 -103 66 -115 9 -8 3 8 -15 36 -36 59 -38 71
-13 77 10 3 6 5 -10 6 -16 0 -28 -1 -28 -4z"/>
<path d="M4765 959 c-4 -6 -4 -13 -1 -16 8 -8 36 5 36 17 0 13 -27 13 -35 -1z"/>
<path d="M4817 885 c-10 -7 -14 -16 -9 -19 5 -3 15 1 22 9 17 21 9 27 -13 10z"/>
<path d="M5205 1000 c3 -5 8 -10 11 -10 2 0 4 5 4 10 0 6 -5 10 -11 10 -5 0
-7 -4 -4 -10z"/>
</g>
</svg>
